<?xml version="1.0" encoding="utf-8"?>
<!-- Generator: Adobe Illustrator 21.0.0, SVG Export Plug-In . SVG Version: 6.00 Build 0)  -->
<svg version="1.1" id="Capa_1" xmlns="http://www.w3.org/2000/svg" xmlns:xlink="http://www.w3.org/1999/xlink" x="0px" y="0px"
	 viewBox="0 0 1339.6 452.2" style="enable-background:new 0 0 1339.6 452.2;" xml:space="preserve">
<style type="text/css">
	.st0{fill:#010202;}
	.st1{fill:#FEFEFD;}
	.st2{fill:#494849;}
	.st3{fill:#DDE1E5;}
	.st4{fill:#F6F8F0;}
	.st5{fill:#65C2CD;}
	.st6{fill:#C2C1C1;}
	.st7{fill:#ECF1CB;}
	.st8{fill:#7F7D7E;}
	.st9{fill:#676566;}
	.st10{fill:#F3F6E0;}
	.st11{fill:#9D9C9D;}
	.st12{fill:#DBE6AF;}
	.st13{fill:#4AAE4B;}
	.st14{fill:#B1CE73;}
	.st15{fill:#CDDF99;}
	.st16{fill:#9AC33C;}
	.st17{fill:#97C22C;}
	.st18{fill:#21B6C3;}
	.st19{fill:#48AD38;}
	.st20{fill:#92C02A;}
	.st21{fill:#C5D31E;}
	.st22{fill:#FFFFFF;}
	.st23{fill:#CDCCCC;}
	.st24{fill:#999999;}
</style>
<g>
	<g>
		<path class="st22" d="M504,139.5c-30.1,0-41.4-1.5-48.4-6.4c-7.2-4.9-9.6-11.6-9.6-26.4v-7.4h32.6v2.5c0,6.1,0.6,6.8,1.7,7.5
			c2.1,1.4,5.8,1.7,24.4,1.7c14.6,0,22.6,0,26.1-1c1.9-0.5,2-0.7,2-5.4c0-3.9,0-5.1-8.8-5.3l-22.5-0.9l-15.2-0.8l-7.6-0.3
			c-24.5-0.8-32-8.3-32-32c0-20.4,5.8-30.1,19.9-33.4c5.8-1.3,19-1.9,41.4-1.9c27.9,0,38.1,1.5,45.1,6.7c6.3,4.6,8.9,11.7,8.9,24.5
			c0,1.9,0,3.5-0.1,4.9l-0.2,2.3h-32.2l-0.1-2.4c-0.3-5.5-0.7-5.7-1.7-6.4c-1.8-1.2-6.2-1.4-24.7-1.4c-12,0-18.3,0.2-21.4,1.1
			c-1.7,0.5-2.2,0.9-2.2,4.4c0,3.3,1,3.8,2.3,4.1c2.6,0.8,13.2,1.2,29.5,1.7c30.3,1,37.4,1.7,44.3,6.4c7.3,5.1,9.9,12.6,9.9,27.6
			c0,18.7-4.4,28.2-15.2,32.6C544.3,138.6,532.7,139.5,504,139.5z M450.9,104.3v2.4c0,14.6,2.4,18.8,7.5,22.3
			c6,4.2,17.1,5.5,45.6,5.5c27.6,0,39.2-0.7,44.4-2.9c7.2-3,12.1-8.8,12.1-27.9c0-13.3-2-19.4-7.8-23.5c-5.4-3.7-11.2-4.4-41.6-5.5
			c-20.7-0.6-27.9-1.1-30.7-1.9c-4-1-6-4-6-8.9c0-10.6,6.1-10.6,28.6-10.6c20.8,0,24.4,0.3,27.4,2.2c2.8,1.8,3.5,3.9,3.8,8H557
			c0-0.7,0-1.4,0-2.2c0-11.1-1.9-16.9-6.8-20.5c-6.1-4.5-15.5-5.8-42.2-5.8c-21.8,0-35,0.6-40.3,1.8c-9.9,2.3-16,7.9-16,28.6
			c0,21,5.3,26.3,27.2,27l7.6,0.3l15.2,0.8l22.4,0.9c9,0.1,13.6,1.8,13.6,10.3c0,11.5-2.5,11.5-33.1,11.5c-20.6,0-23.9-0.3-27.2-2.6
			c-2.9-1.9-3.7-4.5-3.9-9.1H450.9z"/>
	</g>
	<g>
		<path class="st22" d="M679.5,137.9H570.4V31.5H679v28.9h-75.5v9.7h71.7v27.3h-71.7v11.1h76.1V137.9z M575.4,132.9h99.1v-19.3
			h-76.1V92.5h71.7V75.1h-71.7V55.4H674V36.5h-98.6V132.9z"/>
	</g>
	<g>
		<path class="st22" d="M804,137.9h-33.1v-7.8c0-10.6-0.5-14-2.2-16c-1.2-1.5-2.7-1.9-14-1.9H717v25.7h-33.5V31.5h71.4
			c32.4,0,33,0,39.7,4.4c8,5.2,10.4,12.5,10.4,31.1c0,14.1-1.1,21.8-7.4,26.9c-1,0.8-1.9,1.5-3,2.1c8.5,3.8,9.9,12.1,9.4,30.1
			L804,137.9z M775.9,132.9H799V126c0.6-23.3-2-25.8-14.2-27.3l-0.1-4.9c5.6-0.9,7.7-2,9.7-3.7c4.3-3.5,5.6-8.7,5.6-23
			c0-18.5-2.5-23.2-8.1-27c-5.4-3.5-5.4-3.5-36.9-3.5h-66.4v96.4H712v-25.7h42.8c11.5,0,15,0.2,17.8,3.7c2.9,3.3,3.4,7.7,3.4,19.2
			V132.9z M754.6,86.8H712V56.9l42.9,0c13.2,0.2,13.7,0.2,16.1,1.3c4.6,2.1,5.5,6.9,5.5,13.4c0,6.2-0.7,10.6-4.1,13
			C769.8,86.5,769.4,86.5,754.6,86.8L754.6,86.8z M717,81.8h37.6c13.5-0.3,13.5-0.3,14.8-1.3l0.1-0.1c1-0.7,2-2.2,2-8.9
			c0-7-1.3-8.2-2.6-8.8c-1.4-0.7-1.8-0.7-14.1-0.8l-0.2,0H717V81.8z"/>
	</g>
	<g>
		<path class="st22" d="M895.6,137.9h-46.9L800.1,31.5h36.8l34.1,75.9h2.2l33.7-75.9h36.6L895.6,137.9z M851.9,132.9h40.4l43.5-96.4
			h-25.7l-33.7,75.9h-8.7l-34.1-75.9h-25.8L851.9,132.9z"/>
	</g>
	<g>
		<path class="st22" d="M1067,137.9h-38l-8-17.2h-58.7l-8,17.2h-38.2l52-106.4h47.5L1067,137.9z M1032.2,132.9h26.8l-46.6-96.4
			h-41.2l-47.1,96.4h27l8-17.2h65.1L1032.2,132.9z M1016.6,98.6h-49.7l20.5-43.5h8.8L1016.6,98.6z M974.8,93.6h33.9L993,60.1h-2.4
			L974.8,93.6z"/>
	</g>
	<g>
		<path class="st22" d="M1098.3,137.9h-33.5V31.5h103.9v28.9h-70.4v14.2h66.9v28.3h-66.9V137.9z M1069.8,132.9h23.5V97.8h66.9V79.6
			h-66.9V55.4h70.4V36.5h-93.9V132.9z"/>
	</g>
</g>
<g>
	<path class="st22" d="M478.9,162.4v14.3h-24.1v8.8h22.8v13.4h-22.8v9.7h24.2v14.6h-33.2v-60.7H478.9z"/>
	<path class="st22" d="M489.1,180.1v6.5h0.4c1.2-5.2,3.8-7.6,8.5-7.6c5.1,0,7.9,2.6,9.6,9c1.3-6.5,3.9-9,9.1-9c4.4,0,7,1.6,8.8,5.6
		c1.8,3.8,2.2,7.4,2.2,18.5v20.1h-7.9V203c0-7.2-0.1-8-0.9-9.6c-0.8-1.6-2.1-2.4-4.5-2.4c-2.4,0-3.8,0.8-4.7,2.7
		c-0.9,2-1.2,4.6-1.2,11.6v17.8h-7.9V203c0-6.7-0.1-7.9-0.8-9.6c-0.7-1.6-2.1-2.4-4.4-2.4c-2.4,0-3.9,0.8-4.8,2.6s-1.2,4.6-1.2,11.7
		v17.8h-7.9v-43.1H489.1z"/>
	<path class="st22" d="M531.3,180.1h7.5v5.8h0.4c1.4-5.3,3.6-6.9,9.7-6.9c5.5,0,8.3,1.3,10.1,4.7c1.7,3.1,2.2,7.2,2.2,18.1
		c0,18.8-2.1,22.4-12.6,22.4c-5.4,0-7.4-1.5-8.9-6.6h-0.4v23.5h-7.9V180.1z M539.2,202.1c0,8.4,1.2,10,7,10c3,0,4.9-0.6,5.8-1.9
		c0.9-1.4,1.2-3.6,1.2-9.3c0-8.3-1.1-9.8-6.7-9.8C540.1,191.1,539.2,192.5,539.2,202.1z"/>
	<path class="st22" d="M571.5,180.1v6.5h0.4c1.5-5.5,3.7-7.6,8.1-7.6c6.4,0,8.5,4.4,8.5,17.3v2.9h-7.5c0-6.4-0.9-8.1-4.2-8.1
		c-1.8,0-3.3,1.1-4,3.1c-0.8,2.1-1,4.5-1,11.1v17.8h-7.9v-43.1H571.5z"/>
	<path class="st22" d="M619,209.4c-0.6,11.9-3.5,14.8-14.8,14.8c-6.1,0-9-1.1-11-4c-2.1-3.2-2.7-7.5-2.7-18.5
		c0-11.6,0.6-15.8,2.9-19c2.1-2.9,4.7-3.8,11.6-3.8c7.2,0,9.7,0.9,11.6,4.1c1.9,3.2,2.6,8,2.6,17.8c0,0.5,0,2.5,0,4.4h-20.7
		c0,4.4,0.2,5.8,1,7c0.8,1.3,2.5,1.8,5.4,1.8c5.1,0,6-0.7,6.3-4.6H619z M611.2,196.3c0-3.4-0.1-4.2-0.6-5.2
		c-0.7-1.5-2.3-2.2-5.5-2.2c-5.3,0-6.6,1.4-6.7,7.4H611.2z"/>
	<path class="st22" d="M629.5,209.4c0.1,3.7,1.7,4.8,6.6,4.8c5.1,0,6.6-0.9,6.6-4c0-1.7-0.7-2.9-1.8-3.2c-1.1-0.2-3-0.3-10.8-0.3
		c-6-0.2-8.5-4-8.5-13.2c0-6.6,1.2-10.7,3.7-12.6c1.7-1.4,5.4-2,11-2c7.2,0,9.8,0.9,11.6,4c1.1,1.8,1.5,4.1,1.7,9.3h-8
		c-0.2-1.4-0.3-1.6-0.5-2c-0.7-0.9-2.3-1.3-5-1.3c-5,0-6.5,0.8-6.5,3.6c0,1.7,0.6,2.6,1.9,2.8c1.3,0.2,2.7,0.3,10.8,0.4
		c6.1,0.1,8.5,3.7,8.5,13.4c0,12.3-2.9,15.1-15.1,15.1c-7.7,0-10.3-0.9-12.2-4.5c-1.3-2.4-1.8-5.4-1.9-10.4H629.5z"/>
	<path class="st22" d="M653.7,193.6c0.2-6.3,1.3-9.7,3.7-12.1c1.8-1.7,5.5-2.5,11.8-2.5c6.9,0,8.5,0.6,10.3,4.3
		c1.3,2.9,1.8,6.2,1.8,14v26h-7.6v-5.9h-0.3c-0.7,2.8-1.5,4.4-3,5.6c-1.3,1.1-3.3,1.5-8.4,1.5c-7,0-9.2-3.2-9.2-13.4
		c0-7.7,1.4-12,4.5-13.7c1.9-1.1,4-1.4,9.8-1.4c3.7,0,4.7,0.6,6,3.4h0.4v-2.3c0-6.7-0.6-7.6-5.4-7.6c-5.7,0-6.3,0.4-6.5,4.3H653.7z
		 M660.8,209.5c0,3.5,1.2,4.5,5.5,4.5c5.6,0,7.2-1.1,7.2-4.9c0-1.7-0.5-3-1.4-3.6c-0.5-0.4-1.7-0.5-5.1-0.5
		C662.1,205,660.8,206,660.8,209.5z"/>
	<path class="st22" d="M725.2,223.2h-7.5v-5.6h-0.4c-1.5,5.2-3.6,6.7-9.3,6.7s-8.5-1.2-10.3-4.6c-1.7-3.3-2.3-7.6-2.3-18.4
		c0-10.9,0.8-16.1,3.1-19.1c1.9-2.5,4.1-3.3,9.6-3.3c5.5,0,7.4,1.5,8.9,6.9h0.3v-23.4h7.9V223.2z M703.3,201.1
		c0,9.5,0.9,10.9,6.8,10.9c2.9,0,5.1-0.7,5.9-2c0.9-1.2,1.2-3.5,1.2-8.5c0-8.9-1-10.6-6.7-10.6C704.4,191,703.3,192.5,703.3,201.1z"
		/>
	<path class="st22" d="M756.6,209.4c-0.6,11.9-3.5,14.8-14.8,14.8c-6.1,0-9-1.1-11-4c-2.1-3.2-2.7-7.5-2.7-18.5
		c0-11.6,0.6-15.8,2.9-19c2.1-2.9,4.7-3.8,11.6-3.8c7.2,0,9.7,0.9,11.6,4.1c1.9,3.2,2.6,8,2.6,17.8c0,0.5,0,2.5,0,4.4h-20.7
		c0,4.4,0.2,5.8,1,7c0.8,1.3,2.5,1.8,5.4,1.8c5.1,0,6-0.7,6.3-4.6H756.6z M748.8,196.3c0-3.4-0.1-4.2-0.6-5.2
		c-0.7-1.5-2.3-2.2-5.5-2.2c-5.3,0-6.6,1.4-6.7,7.4H748.8z"/>
	<path class="st22" d="M779,203c0,3.6,0.2,4.8,0.9,5.7c0.8,1.1,1.8,1.3,8.2,1.3c9.7,0,9.7,0,9.7-5.4c0-3.6-0.7-4.6-3.6-4.6l-7.2-0.5
		l-4.8-0.5l-2.4-0.2c-7.4-0.5-9.4-4.3-9.4-17.7c0-11.6,1.6-16.8,5.7-18.6c1.7-0.7,5.9-1.1,13-1.1c8.7,0,11.8,0.8,13.9,3.7
		c1.8,2.5,2.5,6.3,2.5,13.5c0,0.4,0,1.6,0,2.8h-8.8c-0.1-3.4-0.2-4.2-0.9-5c-0.8-0.9-1.9-1.1-8.3-1.1c-7.7,0-8.3,0.4-8.3,4.8
		c0,2.3,0.4,3.5,1.3,3.9c0.8,0.5,3.3,0.7,9.6,1.1c9.8,0.6,11.8,1.1,13.7,3.6c2.1,2.7,2.8,6.8,2.8,15.3c0,10.6-1.3,15.8-4.3,18.1
		c-1.8,1.4-5.5,1.8-14.4,1.8c-9.3,0-12.9-0.8-15-3.6c-2.1-2.6-2.7-6.2-2.7-14.6V203H779z"/>
	<path class="st22" d="M837.4,209.4c-0.6,11.9-3.5,14.8-14.8,14.8c-6.1,0-9-1.1-11-4c-2.1-3.2-2.7-7.5-2.7-18.5
		c0-11.6,0.6-15.8,2.9-19c2.1-2.9,4.7-3.8,11.6-3.8c7.2,0,9.7,0.9,11.6,4.1c1.9,3.2,2.6,8,2.6,17.8c0,0.5,0,2.5,0,4.4h-20.7
		c0,4.4,0.2,5.8,1,7c0.8,1.3,2.5,1.8,5.4,1.8c5.1,0,6-0.7,6.3-4.6H837.4z M829.6,196.3c0-3.4-0.1-4.2-0.6-5.2
		c-0.7-1.5-2.3-2.2-5.5-2.2c-5.3,0-6.6,1.4-6.7,7.4H829.6z"/>
	<path class="st22" d="M848,180.1v6.5h0.4c1.5-5.5,3.7-7.6,8.1-7.6c6.4,0,8.5,4.4,8.5,17.3v2.9h-7.5c0-6.4-0.9-8.1-4.2-8.1
		c-1.8,0-3.3,1.1-4,3.1c-0.8,2.1-1,4.5-1,11.1v17.8h-7.9v-43.1H848z"/>
	<path class="st22" d="M874.1,180.1l6.6,30.6l6.5-30.6h9l-10.4,43.1h-10.2l-10.4-43.1H874.1z"/>
	<path class="st22" d="M905.3,162.4v12.1h-7.9v-12.1H905.3z M905.3,180.1v43.1h-7.9v-43.1H905.3z"/>
	<path class="st22" d="M937.2,205.9c-0.1,7.2-0.6,10.3-2,13.1c-2,4.2-4.6,5.3-12.9,5.3c-6.5,0-9.2-0.9-11.3-4
		c-2.1-2.9-2.7-7.6-2.7-18.9c0-10.4,0.6-14.9,2.5-18c2-3.4,4.8-4.4,11.9-4.4c7,0,10.1,1.1,12.1,4.5c1.7,2.7,2.3,6.1,2.4,14.2h-8
		c-0.3-4.9-1.8-6.6-6.5-6.6c-5.5,0-6.5,1.7-6.5,10.7c0,5.6,0.4,7.8,1.9,9c0.9,0.8,2.6,1.3,4.7,1.3c4.6,0,6-1.3,6.3-6.2H937.2z"/>
	<path class="st22" d="M948,162.4v12.1h-7.9v-12.1H948z M948,180.1v43.1h-7.9v-43.1H948z"/>
	<path class="st22" d="M978.2,182.9c2.1,3.2,2.7,7.1,2.7,17.9c0,11.8-0.5,15.8-2.5,19.1c-2,3.4-4.7,4.3-12.5,4.3
		c-7.9,0-10.6-0.9-12.6-4.3c-2-3.3-2.5-7.3-2.5-19.8c0-10.1,0.6-14.2,2.7-17.3c2-2.9,5.1-3.9,12.3-3.9
		C973.2,179,976.3,180,978.2,182.9z M958.9,202c0,5.7,0.4,7.6,1.8,8.8c1,0.9,2.8,1.4,5.3,1.4c6,0,7-1.5,7-10.7
		c0-5.8-0.4-7.9-1.9-9.1c-1-0.8-2.9-1.3-5.1-1.3C960,191.1,958.9,192.8,958.9,202z"/>
	<path class="st22" d="M991.3,209.4c0.1,3.7,1.7,4.8,6.6,4.8c5.1,0,6.6-0.9,6.6-4c0-1.7-0.7-2.9-1.8-3.2c-1.1-0.2-3-0.3-10.8-0.3
		c-6-0.2-8.5-4-8.5-13.2c0-6.6,1.2-10.7,3.7-12.6c1.7-1.4,5.4-2,11-2c7.2,0,9.8,0.9,11.6,4c1.1,1.8,1.5,4.1,1.7,9.3h-8
		c-0.2-1.4-0.3-1.6-0.5-2c-0.7-0.9-2.3-1.3-5-1.3c-5,0-6.5,0.8-6.5,3.6c0,1.7,0.6,2.6,1.9,2.8c1.3,0.2,2.7,0.3,10.8,0.4
		c6.1,0.1,8.5,3.7,8.5,13.4c0,12.3-2.9,15.1-15.1,15.1c-7.7,0-10.3-0.9-12.2-4.5c-1.3-2.4-1.8-5.4-1.9-10.4H991.3z"/>
	<path class="st22" d="M1055.7,223.2h-7.5v-5.6h-0.4c-1.5,5.2-3.6,6.7-9.3,6.7s-8.5-1.2-10.3-4.6c-1.7-3.3-2.3-7.6-2.3-18.4
		c0-10.9,0.8-16.1,3.1-19.1c1.9-2.5,4.1-3.3,9.6-3.3c5.5,0,7.4,1.5,8.9,6.9h0.3v-23.4h7.9V223.2z M1033.8,201.1
		c0,9.5,0.9,10.9,6.8,10.9c2.9,0,5.1-0.7,5.9-2c0.9-1.2,1.2-3.5,1.2-8.5c0-8.9-1-10.6-6.7-10.6
		C1034.9,191,1033.8,192.5,1033.8,201.1z"/>
	<path class="st22" d="M1087.1,209.4c-0.6,11.9-3.5,14.8-14.8,14.8c-6.1,0-9-1.1-11-4c-2.1-3.2-2.7-7.5-2.7-18.5
		c0-11.6,0.6-15.8,2.9-19c2.1-2.9,4.7-3.8,11.6-3.8c7.2,0,9.7,0.9,11.6,4.1c1.9,3.2,2.6,8,2.6,17.8c0,0.5,0,2.5,0,4.4h-20.7
		c0,4.4,0.2,5.8,1,7c0.8,1.3,2.5,1.8,5.4,1.8c5.1,0,6-0.7,6.3-4.6H1087.1z M1079.4,196.3c0-3.4-0.1-4.2-0.6-5.2
		c-0.7-1.5-2.3-2.2-5.5-2.2c-5.3,0-6.6,1.4-6.7,7.4H1079.4z"/>
	<path class="st22" d="M1133.3,162.4v14.3h-22.4v11.5h21.3v13.9h-21.3v21h-9.1v-60.7H1133.3z"/>
	<path class="st22" d="M1142.9,162.4v60.7h-7.9v-60.7H1142.9z"/>
	<path class="st22" d="M1173.1,182.9c2.1,3.2,2.7,7.1,2.7,17.9c0,11.8-0.5,15.8-2.5,19.1c-2,3.4-4.7,4.3-12.5,4.3
		c-7.9,0-10.6-0.9-12.6-4.3c-2-3.3-2.5-7.3-2.5-19.8c0-10.1,0.6-14.2,2.7-17.3c2-2.9,5.1-3.9,12.3-3.9
		C1168.1,179,1171.2,180,1173.1,182.9z M1153.8,202c0,5.7,0.4,7.6,1.8,8.8c1,0.9,2.8,1.4,5.3,1.4c6,0,7-1.5,7-10.7
		c0-5.8-0.4-7.9-1.9-9.1c-1-0.8-2.9-1.3-5.1-1.3C1154.9,191.1,1153.8,192.8,1153.8,202z"/>
	<path class="st22" d="M1186.3,180.1v6.5h0.4c1.5-5.5,3.7-7.6,8.1-7.6c6.4,0,8.5,4.4,8.5,17.3v2.9h-7.5c0-6.4-0.9-8.1-4.2-8.1
		c-1.8,0-3.3,1.1-4,3.1c-0.8,2.1-1,4.5-1,11.1v17.8h-7.9v-43.1H1186.3z"/>
	<path class="st22" d="M1233.7,209.4c-0.6,11.9-3.5,14.8-14.8,14.8c-6.1,0-9-1.1-11-4c-2.1-3.2-2.7-7.5-2.7-18.5
		c0-11.6,0.6-15.8,2.9-19c2.1-2.9,4.7-3.8,11.6-3.8c7.2,0,9.7,0.9,11.6,4.1c1.9,3.2,2.6,8,2.6,17.8c0,0.5,0,2.5,0,4.4h-20.7
		c0,4.4,0.2,5.8,1,7c0.8,1.3,2.5,1.8,5.4,1.8c5.1,0,6-0.7,6.3-4.6H1233.7z M1225.9,196.3c0-3.4-0.1-4.2-0.6-5.2
		c-0.7-1.5-2.3-2.2-5.5-2.2c-5.3,0-6.6,1.4-6.7,7.4H1225.9z"/>
	<path class="st22" d="M1244.3,180.1v6.6h0.4c1.4-5.6,3.8-7.6,9-7.6c5.1,0,7.6,1.5,9.5,5.4c1.9,4.1,2.3,7.4,2.3,19.2v19.6h-7.9
		v-19.6c0-6.9-0.1-8.5-1-10.1c-0.8-1.7-2.4-2.4-5.3-2.4c-2.9,0-4.5,0.8-5.4,2.8c-1,2.1-1.2,4.1-1.2,12v17.2h-7.9v-43.1H1244.3z"/>
	<path class="st22" d="M1297.3,205.9c-0.1,7.2-0.6,10.3-2,13.1c-2,4.2-4.6,5.3-12.9,5.3c-6.5,0-9.2-0.9-11.3-4
		c-2.1-2.9-2.7-7.6-2.7-18.9c0-10.4,0.6-14.9,2.5-18c2-3.4,4.8-4.4,11.9-4.4c7,0,10.1,1.1,12.1,4.5c1.7,2.7,2.3,6.1,2.4,14.2h-8
		c-0.3-4.9-1.8-6.6-6.5-6.6c-5.5,0-6.5,1.7-6.5,10.7c0,5.6,0.4,7.8,1.9,9c0.9,0.8,2.6,1.3,4.7,1.3c4.6,0,6-1.3,6.3-6.2H1297.3z"/>
	<path class="st22" d="M1308.2,162.4v12.1h-7.9v-12.1H1308.2z M1308.2,180.1v43.1h-7.9v-43.1H1308.2z"/>
	<path class="st22" d="M1311.9,193.6c0.2-6.3,1.3-9.7,3.7-12.1c1.8-1.7,5.5-2.5,11.8-2.5c6.9,0,8.5,0.6,10.3,4.3
		c1.3,2.9,1.8,6.2,1.8,14v26h-7.6v-5.9h-0.3c-0.7,2.8-1.5,4.4-3,5.6c-1.3,1.1-3.3,1.5-8.5,1.5c-7,0-9.2-3.2-9.2-13.4
		c0-7.7,1.4-12,4.5-13.7c1.9-1.1,4-1.4,9.8-1.4c3.7,0,4.7,0.6,6,3.4h0.4v-2.3c0-6.7-0.6-7.6-5.4-7.6c-5.7,0-6.3,0.4-6.5,4.3H1311.9z
		 M1319,209.5c0,3.5,1.2,4.5,5.5,4.5c5.6,0,7.2-1.1,7.2-4.9c0-1.7-0.5-3-1.4-3.6c-0.5-0.4-1.7-0.5-5.1-0.5
		C1320.3,205,1319,206,1319,209.5z"/>
</g>
<g>
	<path class="st22" d="M684.2,289.7c0,3.7,0.3,4.9,1.7,5.8c1.6,1.1,3.5,1.3,15.7,1.3c18.6,0,18.6,0,18.6-5.5c0-3.7-1.3-4.6-6.8-4.7
		l-13.7-0.6l-9.2-0.5l-4.6-0.2c-14.1-0.5-18-4.3-18-17.9c0-11.7,3.1-17,10.9-18.9c3.3-0.7,11.2-1.1,24.9-1.1
		c16.6,0,22.5,0.8,26.6,3.8c3.4,2.5,4.8,6.4,4.8,13.7c0,0.4,0,1.7-0.1,2.9h-16.7c-0.2-3.4-0.4-4.3-1.7-5.1
		c-1.5-0.9-3.6-1.1-15.9-1.1c-14.7,0-15.9,0.4-15.9,4.9c0,2.3,0.8,3.5,2.6,4c1.5,0.5,6.2,0.7,18.3,1.1c18.8,0.6,22.5,1.1,26.1,3.6
		c3.9,2.8,5.4,6.9,5.4,15.5c0,10.7-2.4,16-8.3,18.4c-3.4,1.4-10.6,1.8-27.6,1.8c-17.7,0-24.6-0.8-28.6-3.6
		c-3.9-2.7-5.2-6.3-5.2-14.8v-3H684.2z"/>
	<path class="st22" d="M762.2,293.8v16.4H744v-16.4H762.2z"/>
	<path class="st22" d="M828,299.7h-37.7l-4.9,10.5h-19.8l30.1-61.7h27l29.8,61.7h-19.7L828,299.7z M810.9,262.8h-3.4l-11,23.4h25.5
		L810.9,262.8z"/>
	<path class="st22" d="M875.1,293.8v16.4h-18.2v-16.4H875.1z"/>
	<path class="st22" d="M968.3,248.4V263h-45.9v9H966v13.6h-43.6v9.8h46.3v14.8h-63.4v-61.7H968.3z"/>
	<path class="st22" d="M993.2,293.8v16.4H975v-16.4H993.2z"/>
	<path class="st22" d="M1016.8,289.7c0,3.7,0.3,4.9,1.7,5.8c1.6,1.1,3.5,1.3,15.7,1.3c18.6,0,18.6,0,18.6-5.5c0-3.7-1.3-4.6-6.8-4.7
		l-13.7-0.6l-9.2-0.5l-4.6-0.2c-14.1-0.5-18-4.3-18-17.9c0-11.7,3.1-17,10.9-18.9c3.3-0.7,11.2-1.1,24.9-1.1
		c16.6,0,22.5,0.8,26.6,3.8c3.4,2.5,4.8,6.4,4.8,13.7c0,0.4,0,1.7-0.1,2.9h-16.7c-0.2-3.4-0.4-4.3-1.7-5.1
		c-1.5-0.9-3.6-1.1-15.9-1.1c-14.7,0-15.9,0.4-15.9,4.9c0,2.3,0.8,3.5,2.6,4c1.5,0.5,6.2,0.7,18.3,1.1c18.8,0.6,22.5,1.1,26.1,3.6
		c3.9,2.8,5.4,6.9,5.4,15.5c0,10.7-2.4,16-8.3,18.4c-3.4,1.4-10.6,1.8-27.6,1.8c-17.7,0-24.6-0.8-28.6-3.6
		c-3.9-2.7-5.2-6.3-5.2-14.8v-3H1016.8z"/>
	<path class="st22" d="M1094.8,293.8v16.4h-18.2v-16.4H1094.8z"/>
	<path class="st22" d="M1103.7,248.4h39c10.8,0,12.3,0.1,15.5,0.6c10.8,1.8,13.8,6.8,13.8,22.6c0,13.7-2.3,19.1-9.1,21.7
		c-3.8,1.4-7.7,1.8-20,1.8H1121v15.1h-17.3V248.4z M1142.7,279.6c8-0.1,8.4-0.1,9.8-1c1.6-1.1,2.1-2.8,2.1-7c0-4.4-0.8-6.3-3-7.1
		c-1.2-0.5-1.4-0.5-9-0.6H1121v15.7H1142.7z"/>
	<path class="st22" d="M1194,293.8v16.4h-18.2v-16.4H1194z"/>
</g>
<path class="st22" d="M391.5,116.5l-2.9-7.2c-1-2.1-2.1-4.1-3.3-6L329.2,0L273,103.3c-1.2,1.9-2.3,3.9-3.3,6l-2.9,7.2
	c-2.3,6.6-3.5,13.8-3.5,21.2c0,36.4,29.5,65.8,65.8,65.8S395,174,395,137.7C395,130.3,393.8,123.1,391.5,116.5z"/>
<path class="st22" d="M413.5,271.8l-1.5-3.8c-0.5-1.1-1.1-2.2-1.7-3.2l-29.9-55l-29.9,55c-0.6,1-1.2,2.1-1.7,3.2l-1.5,3.8
	c-1.2,3.5-1.9,7.3-1.9,11.3c0,19.3,15.7,35,35,35c19.3,0,35-15.7,35-35C415.3,279.1,414.7,275.3,413.5,271.8z"/>
<path class="st22" d="M99.1,134c1.8,11.6,13,29.8,31.9,51.7C158,217,198.3,253,244.2,287c75.3,55.7,150.4,94.1,183.3,94.1
	c1.3,0,2.4-0.1,3.6-0.2c4.7-6.6-0.5-20.9-14.1-39.9c0.9,5,0.2,9.1-2.1,12.3c-3,4.1-8.3,6-15.5,6c-31,0-96.2-35.7-152.7-77.2
	c-37.8-27.7-70.9-57.1-93.3-82.8c-16.4-18.8-34.1-43.9-25-56.3c2.3-3.1,6-5,11-5.7c-11.9-3.9-21.8-5.9-29.1-5.9
	C105.3,131.3,101.6,132.2,99.1,134z"/>
<path class="st22" d="M73,105.6c-8.1,0-13.7,1.9-16.6,5.8c-0.8,1.1-1.3,2.3-1.7,3.6c6.7,35.6,80.2,110.7,175.9,179.4
	C331.7,367.1,417,405.2,453.3,405.2c6.7,0,11.8-1.3,15-4c-2.1-9.9-9.2-23.3-20.7-39.1c2,7.5,1.4,13.4-1.8,17.8
	c-2.6,3.6-6.8,5.8-12.4,6.7c-1.8,0.3-3.7,0.4-5.7,0.4c-34.7,0-109.7-37.9-187.1-95.2c-46.3-34.2-86.9-70.5-114.3-102.2
	c-20-23.1-41.5-53.8-30.7-68.7c3.2-4.4,8.6-6.7,16.3-7C96,108.4,82.7,105.6,73,105.6z"/>
<path class="st22" d="M475.8,379.3c3.5,10.2,3.2,18.2-1,23.8c-12.9,17.2-55.6,3.7-89.2-10.6c-46.2-19.8-102.5-52.9-158.6-93.1
	C127.7,227.9,54.2,152.1,48.5,114.8c-1-6.5,0-11.8,3.1-15.8c4.2-5.5,11.7-8.2,22.4-8.1C53.2,83.7,36.1,80,23.6,80
	c-10,0-17.1,2.4-20.7,7.2c-2.6,3.4-3.4,8.2-2.5,14.2C6.9,144.1,96,235.6,212.2,319c67,48.1,134.3,87.6,189.5,111.2
	c53.2,22.7,89.4,28.1,99.5,14.7C509.3,434.1,500.1,410.7,475.8,379.3z"/>
</svg>
