<?xml version="1.0" encoding="UTF-8" standalone="no"?>
<!-- Created with Inkscape (http://www.inkscape.org/) -->

<svg
   xmlns:dc="http://purl.org/dc/elements/1.1/"
   xmlns:cc="http://creativecommons.org/ns#"
   xmlns:rdf="http://www.w3.org/1999/02/22-rdf-syntax-ns#"
   xmlns:svg="http://www.w3.org/2000/svg"
   xmlns="http://www.w3.org/2000/svg"
   xmlns:sodipodi="http://sodipodi.sourceforge.net/DTD/sodipodi-0.dtd"
   xmlns:inkscape="http://www.inkscape.org/namespaces/inkscape"
   width="146.18228mm"
   height="45.735191mm"
   viewBox="0 0 146.18228 45.735191"
   version="1.1"
   id="svg1108"
   inkscape:version="0.92.4 (5da689c313, 2019-01-14)"
   sodipodi:docname="logo_negativo_saufer.svg">
  <defs
     id="defs1102" />
  <sodipodi:namedview
     id="base"
     pagecolor="#ffffff"
     bordercolor="#666666"
     borderopacity="1.0"
     inkscape:pageopacity="0.0"
     inkscape:pageshadow="2"
     inkscape:zoom="0.98994949"
     inkscape:cx="216.50475"
     inkscape:cy="118.31492"
     inkscape:document-units="mm"
     inkscape:current-layer="layer1"
     showgrid="false"
     inkscape:window-width="1366"
     inkscape:window-height="705"
     inkscape:window-x="-8"
     inkscape:window-y="-8"
     inkscape:window-maximized="1" />
  <metadata
     id="metadata1105">
    <rdf:RDF>
      <cc:Work
         rdf:about="">
        <dc:format>image/svg+xml</dc:format>
        <dc:type
           rdf:resource="http://purl.org/dc/dcmitype/StillImage" />
        <dc:title></dc:title>
      </cc:Work>
    </rdf:RDF>
  </metadata>
  <g
     inkscape:label="Capa 1"
     inkscape:groupmode="layer"
     id="layer1"
     transform="translate(138.859,-127.47766)">
    <path
       inkscape:connector-curvature="0"
       style="opacity:1;fill:#ffff;fill-opacity:1;stroke:none;stroke-width:1.03418803;stroke-linecap:round;stroke-linejoin:round;stroke-miterlimit:4;stroke-dasharray:none;stroke-dashoffset:0;stroke-opacity:1"
       d="m -115.99114,127.47766 a 22.867558,22.867558 0 0 0 -22.86786,22.86734 22.867558,22.867558 0 0 0 22.86786,22.86785 22.867558,22.867558 0 0 0 22.822377,-21.60385 l 0.06305,0.01 -0.04599,0.0248 0.109554,0.017 0.03928,-0.13953 -0.159166,-0.0956 a 22.867558,22.867558 0 0 0 0.03823,-1.08053 22.867558,22.867558 0 0 0 -22.867335,-22.86734 z m -5.3e-4,1.07693 h 5.3e-4 5.3e-4 c 5.35617,5.3e-4 10.48924,1.99256 14.46371,5.52783 -1.68259,-0.95024 -3.40611,-1.33409 -5.06997,-1.35599 l -0.008,-0.0139 h -0.0801 c -0.14271,-8e-4 -0.28438,0.002 -0.42581,0.006 -2.99813,0.0933 -5.7272,1.29761 -7.67034,2.43809 -0.44007,0.25829 -0.83926,0.51025 -1.19166,0.74828 -0.0722,0.0485 -0.13697,0.0931 -0.20515,0.14004 -0.11535,0.0798 -0.22302,0.15542 -0.3266,0.22996 -0.47193,0.33812 -0.74386,0.55418 -0.94103,0.7183 -0.0989,0.0823 -0.25091,0.20544 -0.27233,0.22427 l -1.50994,-1.83089 -0.55242,-0.67128 c 2.01088,-2.21509 5.74642,-3.3693 5.74642,-3.3693 a 0.13230488,0.13230488 0 0 0 0.006,-0.25115 c -3.4069,-1.2312 -6.24414,-0.74003 -8.02638,0.447 -0.89113,0.59352 -1.51928,1.36129 -1.81901,2.17662 -0.29974,0.81532 -0.26681,1.68157 0.16381,2.44377 3.75533,6.64693 4.90845,7.64465 8.67699,12.35274 1.88956,2.36065 4.59569,5.39027 6.6766,8.56227 1.35734,2.06905 2.43079,4.19393 2.85925,6.22701 -0.60238,-1.86887 -1.85315,-3.91245 -3.54759,-6.1743 -2.71478,-3.62391 -6.58182,-7.81415 -10.81588,-12.72997 -4.80663,-5.58059 -5.81229,-9.14924 -5.44204,-11.37554 0.36985,-2.22398 2.11048,-3.16297 2.92643,-3.48971 2.06754,-0.64201 4.21917,-0.97258 6.38411,-0.9803 z m -7.25589,1.12913 c -0.0335,0.0197 -0.0688,0.0447 -0.10284,0.0656 a 21.922618,21.922618 0 0 0 -0.87849,0.32091 21.922618,21.922618 0 0 1 0.98133,-0.38654 z m -2.93212,1.29036 c -1.61199,1.07959 -6.89529,5.8668 3.57394,17.48111 12.00981,13.32337 17.78923,19.4682 11.89437,23.11745 a 21.922618,21.922618 0 0 1 -1.01028,0.23668 21.922618,21.922618 0 0 1 -0.84077,0.14314 21.922618,21.922618 0 0 0 0.59738,-0.0935 21.922618,21.922618 0 0 1 -1.27538,0.20929 21.922618,21.922618 0 0 0 0.678,-0.11576 21.922618,21.922618 0 0 1 -0.84543,0.13229 21.922618,21.922618 0 0 1 -0.66766,0.0682 21.922618,21.922618 0 0 1 -0.67541,0.046 21.922618,21.922618 0 0 0 0.48524,-0.0269 21.922618,21.922618 0 0 1 -1.32963,0.0848 21.922618,21.922618 0 0 0 0.84439,-0.0579 21.922618,21.922618 0 0 1 -1.24024,0.0687 21.922618,21.922618 0 0 1 -21.92267,-21.92269 21.922618,21.922618 0 0 1 0.0889,-1.73582 21.922618,21.922618 0 0 1 11.64528,-17.6351 z m 45.752764,0.93586 c -1.801561,0 -3.341677,0.2532 -4.620908,0.75913 -1.268558,0.50593 -2.244186,1.24474 -2.926435,2.21692 -0.671592,0.96226 -1.007173,1.99934 -1.007173,3.1104 0,1.72612 0.719394,3.18906 2.158523,4.3894 1.02338,0.85314 2.803639,1.5722 5.34076,2.15749 1.972138,0.45633 3.235619,0.77384 3.78995,0.9524 0.810168,0.26785 1.375185,0.58535 1.694985,0.95239 0.330472,0.35713 0.495577,0.79364 0.495577,1.30949 0,0.80353 -0.38918,1.50791 -1.16737,2.11305 -0.767541,0.59521 -1.913634,0.89296 -3.438033,0.89296 -1.43913,0 -2.584696,-0.33724 -3.437517,-1.01182 -0.842148,-0.67457 -1.401805,-1.7314 -1.678967,-3.16983 l -4.605403,0.41702 c 0.30915,2.44038 1.257977,4.30032 2.846337,5.58003 1.58837,1.26978 3.864467,1.90479 6.828007,1.90479 2.03609,0 3.735964,-0.26281 5.100465,-0.78858 1.36451,-0.5357 2.420004,-1.34946 3.166216,-2.44068 0.74621,-1.09122 1.119309,-2.26198 1.119309,-3.51193 0,-1.37891 -0.314671,-2.53447 -0.94361,-3.46697 -0.618299,-0.94243 -1.481354,-1.68123 -2.590022,-2.21692 -1.097991,-0.54562 -2.798381,-1.07175 -5.100981,-1.57768 -2.3026,-0.50593 -3.752646,-0.99206 -4.349607,-1.45831 -0.469059,-0.36705 -0.703316,-0.8081 -0.703316,-1.32395 0,-0.56545 0.250346,-1.01715 0.751377,-1.35444 0.77819,-0.52577 1.855124,-0.78858 3.230293,-0.78858 1.332521,0 2.329069,0.24813 2.989998,0.74414 0.671589,0.48609 1.10849,1.28972 1.311032,2.4107 l 4.733043,-0.19378 c -0.0746,-2.00389 -0.857813,-3.60557 -2.350243,-4.80591 -1.48177,-1.20035 -3.694078,-1.80093 -6.636287,-1.80093 z m 55.176999,0 c -1.24725,0 -2.28131,0.20864 -3.10214,0.62529 -0.81018,0.40673 -1.36983,0.93742 -1.67897,1.59215 -0.29849,0.65474 -0.44804,1.64674 -0.44804,2.97604 v 1.19063 h -2.4944 v 3.28817 h 2.49442 v 12.51448 h 4.49327 v -12.51448 h 3.35793 v -3.28817 h -3.35793 v -1.11621 c 0,-0.80354 0.13883,-1.34436 0.41599,-1.62212 0.28784,-0.28769 0.75689,-0.4315 1.40715,-0.4315 0.66094,0 1.34818,0.0795 2.0624,0.23822 l 0.60772,-2.91661 c -1.22593,-0.35713 -2.47816,-0.53589 -3.75739,-0.53589 z m -81.758323,1.07074 c 0.18461,-0.004 0.36994,-0.004 0.55604,0.001 0.0525,10e-4 0.10496,10e-4 0.15761,0.004 0.12895,0.005 0.25808,0.0127 0.38757,0.0227 0.002,1.5e-4 0.004,2.6e-4 0.006,5.3e-4 0.007,5.3e-4 0.0138,0.002 0.0207,0.002 0.11629,0.009 0.23268,0.0203 0.34934,0.0336 0.027,0.003 0.0541,0.007 0.0811,0.0103 0.10217,0.0124 0.20455,0.0258 0.30695,0.0413 0.0313,0.005 0.0622,0.01 0.0935,0.015 0.10136,0.0164 0.20287,0.0342 0.30438,0.0537 0.0267,0.005 0.0534,0.0112 0.0801,0.0165 0.10484,0.0211 0.20975,0.0435 0.31471,0.0682 0.0277,0.007 0.0555,0.0134 0.0832,0.0202 0.10125,0.0247 0.20253,0.051 0.30385,0.0791 0.0317,0.009 0.0639,0.0177 0.0956,0.0269 0.0986,0.0284 0.19747,0.0587 0.29611,0.0904 0.0355,0.0114 0.071,0.0228 0.10645,0.0346 0.0952,0.0318 0.19012,0.0657 0.28526,0.10077 0.0348,0.0128 0.0696,0.0255 0.10438,0.0388 0.0972,0.037 0.19438,0.0763 0.29146,0.11679 0.0344,0.0144 0.0689,0.0281 0.10335,0.0429 0.10643,0.0458 0.21258,0.0941 0.31884,0.14418 0.0198,0.009 0.0391,0.0184 0.0589,0.0279 0.10997,0.0527 0.21997,0.10845 0.3297,0.16588 0.0235,0.0123 0.0473,0.0237 0.0708,0.0362 0.10945,0.0583 0.21847,0.11973 0.32763,0.18293 0.02,0.0116 0.04,0.0224 0.06,0.0341 0.12813,0.0753 0.2558,0.15396 0.38343,0.23616 0.13126,0.0845 0.26263,0.17254 0.39326,0.26459 0.13062,0.092 0.26076,0.18808 0.39068,0.28783 1.123686,1.1724 2.001002,2.54117 2.827732,3.9362 -0.129765,-0.10467 -0.266459,-0.21058 -0.4191,-0.3173 -0.754399,-0.52737 -1.78408,-1.0472 -3.094902,-1.29862 -1.80201,-2.51882 -4.1269,-3.17737 -5.98982,-3.18586 -1.87489,-0.008 -3.2985,0.62736 -3.2985,0.62736 l -0.0372,0.0155 c -1.6423,0.32969 -3.49283,1.36099 -4.95112,2.32389 -1.41726,0.93581 -2.36136,1.73009 -2.44378,1.79886 l -2.03088,-2.32028 v -1.63194 l 1.94303,2.35645 a 0.13230488,0.13230488 0 0 0 0.006,0.007 0.13230488,0.13230488 0 0 0 0.003,0.003 l 0.0791,0.0961 0.0956,-0.0868 a 0.13230488,0.13230488 0 0 0 0.006,-0.005 c 0,0 0.15802,-0.1316 0.29921,-0.24805 0.13191,-0.10731 0.29784,-0.23977 0.51521,-0.40359 0.0188,-0.0142 0.0323,-0.0247 0.0517,-0.0393 0.0657,-0.0491 0.14462,-0.10533 0.21704,-0.15812 0.10956,-0.08 0.22696,-0.16343 0.3514,-0.25064 0.0937,-0.0655 0.19078,-0.13274 0.29249,-0.20153 0.15097,-0.10224 0.31539,-0.20866 0.48317,-0.31626 0.29328,-0.18785 0.60257,-0.37962 0.94258,-0.57465 0.47644,-0.27326 0.9964,-0.54722 1.55133,-0.80718 0.0156,-0.007 0.0313,-0.0149 0.047,-0.0222 0.27023,-0.12573 0.54816,-0.24804 0.83406,-0.36483 0.005,-0.002 0.0105,-0.004 0.0155,-0.006 0.0979,-0.0399 0.19751,-0.0788 0.29713,-0.11731 0.093,-0.036 0.18669,-0.0712 0.28112,-0.10594 0.0923,-0.0339 0.1849,-0.0677 0.27854,-0.10025 0.11851,-0.0412 0.23869,-0.0805 0.35915,-0.11937 0.12629,-0.0408 0.25356,-0.0799 0.38189,-0.11782 0.11989,-0.0354 0.24018,-0.0701 0.36174,-0.10284 0.0899,-0.0242 0.18055,-0.0472 0.2713,-0.0698 0.1229,-0.0306 0.24665,-0.0593 0.37103,-0.0868 0.0799,-0.0177 0.15934,-0.0364 0.23978,-0.0527 0.18654,-0.0379 0.37486,-0.0717 0.56431,-0.1018 0.0886,-0.0141 0.17801,-0.0255 0.26717,-0.0377 0.1276,-0.0176 0.25575,-0.0333 0.38447,-0.047 0.0889,-0.01 0.17781,-0.0188 0.26717,-0.0263 0.14476,-0.0123 0.2902,-0.0204 0.43615,-0.0274 0.0626,-0.003 0.12476,-0.008 0.18758,-0.0104 0.0315,-0.001 0.0631,-7.9e-4 0.0946,-0.002 z m -13.04933,1.81488 0.01,0.0124 v 2.05103 l 2.26136,2.58228 0.0997,-0.0842 c 0,0 1.05936,-0.88852 2.52336,-1.85519 1.464,-0.96667 3.33338,-2.0074 4.92011,-2.3089 l 0.0837,-0.0155 0.004,-0.0134 c 0.006,-0.003 0.0621,-0.0238 0.0806,-0.0315 1.6214,0.56176 3.18199,1.40616 4.59765,2.58899 -2.3502,0.61864 -5.16609,2.06946 -8.46718,4.87929 l -0.15193,0.15348 0.004,0.0238 c -2.2e-4,0.004 -2.2e-4,0.009 0,0.0129 v 2.36109 l 2.38745,2.38797 0.0925,-0.0729 c 0,0 1.54896,-1.22939 3.56774,-2.45825 2.01878,-1.22886 4.51408,-2.44773 6.34483,-2.44688 h 0.0119 l 0.0119,-0.002 c 0,0 0.0287,-0.004 0.0382,-0.005 0.41638,0.7889 0.79654,1.63914 1.12913,2.56264 0.36508,1.01368 0.619222,1.99111 0.786002,2.93315 -1.684912,0.59209 -3.852252,1.76318 -6.657992,3.81837 l -0.15089,0.12506 -0.001,0.0475 -0.0243,1.94045 2.45204,3.02152 4.376998,-3.51658 c -1.032668,5.65673 -4.973808,9.09144 -5.540228,9.56014 -0.46511,-2.01924 -1.54462,-4.10004 -2.86638,-6.11486 -2.0962,-3.19531 -4.80955,-6.23181 -6.69107,-8.58242 -3.77217,-4.71263 -4.90299,-5.68109 -8.64908,-12.31087 1.03277,-0.51233 2.1876,-0.93467 3.41685,-1.24334 z m 17.49867,2.81326 c 0.49259,0.008 0.95311,0.0552 1.38286,0.13229 l 0.001,0.001 0.047,0.008 c 0.15033,0.0279 0.29606,0.0603 0.43874,0.0951 0.0185,0.005 0.037,0.009 0.0553,0.0134 0.0792,0.0199 0.15467,0.0427 0.23151,0.0646 0.11971,0.034 0.23694,0.0703 0.35088,0.10852 0.0589,0.0198 0.11831,0.0392 0.175698,0.0599 0.147672,0.0535 0.291385,0.10916 0.428916,0.16847 0.01281,0.005 0.02657,0.0105 0.03927,0.016 0.003,10e-4 0.0058,0.003 0.0088,0.005 0.14519,0.0638 0.283239,0.13079 0.417028,0.19947 0.0492,0.0252 0.0965,0.0512 0.144177,0.077 0.0936,0.0506 0.184644,0.10184 0.272335,0.15399 0.044,0.0262 0.0888,0.0521 0.131257,0.0786 0.116002,0.0722 0.228235,0.14488 0.333315,0.21808 5.29e-4,2.6e-4 0.0011,0.001 0.0021,0.002 0.0245,0.0171 0.04638,0.0341 0.07028,0.0512 0.0804,0.0574 0.15785,0.11452 0.23151,0.17156 0.0467,0.0362 0.09139,0.0722 0.135393,0.10801 0.0353,0.0287 0.06871,0.0569 0.102317,0.0853 0.13254,0.11177 0.256106,0.22138 0.361735,0.32349 0.105431,0.10193 0.19294,0.19478 0.27182,0.28112 0.0922,0.10109 0.170958,0.19255 0.226859,0.26304 0.0021,0.003 0.0063,0.007 0.0083,0.01 0.003,0.004 0.01085,0.0119 0.01394,0.016 0.0669,0.0855 0.109408,0.15243 0.107487,0.14882 l 5.3e-4,5.3e-4 c 0.384021,0.77043 0.685956,1.57699 0.973584,2.38797 -1.21008,-1.27811 -2.582124,-1.95231 -3.996655,-2.20503 -0.02191,-0.004 -0.04373,-0.008 -0.06563,-0.0119 -0.0671,-0.0114 -0.134228,-0.022 -0.201538,-0.0315 -0.0705,-0.0102 -0.141163,-0.0188 -0.211878,-0.0269 -0.0422,-0.005 -0.0843,-0.0104 -0.1266,-0.0145 -0.0159,-0.002 -0.0317,-0.004 -0.0475,-0.005 -0.0677,-0.006 -0.13534,-0.009 -0.20309,-0.0134 -0.0407,-0.003 -0.0813,-0.006 -0.12196,-0.008 -0.123,-0.006 -0.24635,-0.01 -0.36949,-0.0104 -0.14846,-5.3e-4 -0.29698,0.004 -0.44545,0.0109 -0.0414,0.002 -0.0827,0.005 -0.12402,0.007 -0.074,0.004 -0.14776,0.0108 -0.22169,0.017 -0.1698,0.0142 -0.3393,0.0328 -0.5085,0.0558 -0.0431,0.006 -0.0862,0.0107 -0.12919,0.017 -0.20886,0.031 -0.41705,0.0681 -0.62425,0.1111 -0.0311,0.006 -0.062,0.0139 -0.093,0.0207 -0.18074,0.0391 -0.36056,0.0825 -0.5395,0.12971 -0.0454,0.012 -0.0907,0.0237 -0.13591,0.0362 -0.41635,0.11479 -0.82647,0.24969 -1.22835,0.40049 -0.0336,0.0126 -0.0668,0.0259 -0.10025,0.0388 -0.18277,0.07 -0.36379,0.14232 -0.5426,0.21808 -0.0131,0.006 -0.0267,0.0104 -0.0398,0.016 -0.007,0.003 -0.0143,0.007 -0.0217,0.01 -0.0797,0.0341 -0.15688,0.0703 -0.23565,0.10542 -0.22454,0.0998 -0.44455,0.20267 -0.66042,0.30851 -0.0467,0.023 -0.0938,0.045 -0.14004,0.0682 -0.9869,0.49323 -1.85848,1.03019 -2.59571,1.52858 -0.11585,0.078 -0.23304,0.15528 -0.34107,0.23048 -0.10689,0.0748 -0.20469,0.14493 -0.30385,0.21653 -0.17958,0.12894 -0.34553,0.25081 -0.49765,0.36587 -0.0174,0.0132 -0.0368,0.0268 -0.0537,0.0398 -0.12829,0.0976 -0.21226,0.16624 -0.31884,0.25062 -0.10738,0.0852 -0.18593,0.14672 -0.27079,0.21653 -0.24279,0.19881 -0.4254,0.35376 -0.46974,0.39326 l -1.65106,-1.91462 -0.53795,-0.62425 c 4.76959,-4.05879 8.48296,-5.2367 11.2112,-5.19399 z m 41.585061,0.32763 c -2.206673,0 -3.869534,0.36713 -4.988843,1.10122 -1.11932,0.7341 -1.908392,1.86537 -2.366783,3.39308 l 4.077787,0.6842 c 0.27717,-0.7341 0.639543,-1.24504 1.087274,-1.53273 0.44773,-0.2976 1.071176,-0.44648 1.870686,-0.44648 1.18328,0 1.988431,0.17369 2.414839,0.5209 0.42641,0.33728 0.639239,0.90798 0.639239,1.71152 v 0.41651 c -0.810181,0.31745 -2.265048,0.65976 -4.365109,1.02681 -1.55638,0.27777 -2.750193,0.60489 -3.581694,0.98185 -0.820838,0.36705 -1.460873,0.90281 -1.919261,1.60714 -0.45838,0.69442 -0.687298,1.48791 -0.687298,2.38073 0,1.34916 0.50069,2.46522 1.502752,3.34812 1.012719,0.8829 2.393595,1.32447 4.141864,1.32447 0.991401,0 1.92415,-0.17369 2.798281,-0.5209 0.874138,-0.34721 1.694852,-0.86777 2.462382,-1.56218 0.032,0.0794 0.085,0.24292 0.159678,0.49093 0.170561,0.54561 0.314757,0.9573 0.432017,1.23506 h 4.445207 c -0.394431,-0.75393 -0.666227,-1.45831 -0.815454,-2.11305 -0.138592,-0.66465 -0.20774,-1.6916 -0.20774,-3.08043 l 0.04806,-4.88032 c 0,-1.8154 -0.202615,-3.0606 -0.607716,-3.73517 -0.394419,-0.6845 -1.08219,-1.24506 -2.062922,-1.68155 -0.980738,-0.44641 -2.473137,-0.66973 -4.477244,-0.66973 z m 46.557882,0 c -2.24929,0 -4.10944,0.74439 -5.58054,2.23242 -1.47112,1.47811 -2.20658,3.52643 -2.20658,6.14536 0,2.19237 0.55964,4.00775 1.67896,5.44618 1.41781,1.79556 3.60282,2.69338 6.55568,2.69338 1.86554,0 3.41688,-0.39701 4.6534599,-1.19063 1.24724,-0.80354 2.15856,-1.96871 2.7342,-3.49643 l -4.4772499,-0.69969 c -0.24519,0.79361 -0.60756,1.36886 -1.08727,1.72599 -0.47971,0.35713 -1.07152,0.53588 -1.77508,0.53588 -1.03404,0 -1.89763,-0.34231 -2.59055,-1.02681 -0.69289,-0.69441 -1.05527,-1.6616 -1.08727,-2.90163 h 11.2571999 c 0.064,-3.20423 -0.63401,-5.58018 -2.09445,-7.12773 -1.46045,-1.55747 -3.4540299,-2.33629 -5.9805099,-2.33629 z m 18.7812799,0 c -0.7249,0 -1.37514,0.16862 -1.95078,0.50591 -0.565,0.33729 -1.20452,1.03712 -1.91875004,2.09858 v -2.24689 H -3.6781171 v 15.80265 h 4.49326996 v -4.88084 c 0,-2.68837 0.12276,-4.45413 0.36794004,-5.29735 0.25585,-0.84321 0.60214,-1.42353 1.03921,-1.74097 0.43706,-0.32737 0.97044,-0.49093 1.59938,-0.49093 0.65027,0 1.35359,0.22786 2.11047,0.6842 l 1.39113,-3.64526 c -0.94876,-0.52577 -1.93458,-0.7891 -2.95796,-0.7891 z m -54.6648809,0.3576 v 9.99939 c 0,1.48803 0.202626,2.65373 0.607716,3.49694 0.40509,0.84322 1.060686,1.49797 1.966804,1.96423 0.906111,0.46625 1.929458,0.69918 3.070098,0.69918 1.11932,0 2.179659,-0.24307 3.181718,-0.72916 1.012719,-0.48609 1.828588,-1.15045 2.44688,-1.99367 v 2.36574 h 4.173385 v -15.80265 h -4.493264 v 6.66626 c 0,2.26181 -0.112035,3.68525 -0.335896,4.27054 -0.223859,0.57537 -0.639324,1.0615 -1.246952,1.45831 -0.607629,0.38689 -1.295385,0.58033 -2.062922,0.58033 -0.671592,0 -1.225868,-0.14382 -1.662949,-0.4315 -0.43706,-0.29761 -0.741013,-0.69462 -0.911572,-1.19063 -0.1599,-0.50593 -0.239778,-1.86961 -0.239778,-4.09174 v -7.26157 z m -50.641352,2.49959 c 0.002,1e-5 0.003,-1e-5 0.005,0 0.11857,5.3e-4 0.23678,0.004 0.35501,0.01 0.0426,0.002 0.0851,0.006 0.12764,0.009 0.072,0.005 0.14415,0.009 0.21601,0.016 0.0597,0.006 0.11927,0.0127 0.1788,0.0196 0.0595,0.007 0.118928,0.0143 0.178287,0.0227 0.0583,0.008 0.116478,0.0177 0.174668,0.0274 0.0592,0.01 0.118258,0.0206 0.177249,0.032 0.0583,0.0113 0.116565,0.0234 0.174665,0.0362 0.0607,0.0134 0.121394,0.0278 0.181901,0.0429 0.0551,0.0137 0.10999,0.0278 0.164849,0.0429 0.0649,0.0179 0.129683,0.0374 0.194305,0.0574 0.0493,0.0152 0.09869,0.0301 0.147793,0.0465 0.0843,0.0282 0.167995,0.0591 0.251664,0.0909 0.028,0.0106 0.05633,0.02 0.08423,0.031 0.236069,0.0936 0.469725,0.20162 0.700217,0.32608 0.116229,0.0628 0.231632,0.13 0.346231,0.20102 0.0011,7.9e-4 0.0016,0.001 0.0036,0.002 0.003,0.002 0.0063,0.005 0.01035,0.007 0.107302,0.0668 0.214127,0.13702 0.319878,0.21135 0.0131,0.009 0.02609,0.0191 0.03928,0.0284 0.10345,0.0738 0.20615,0.15082 0.307991,0.23203 0.0021,0.002 0.0037,0.003 0.0067,0.005 0.0021,0.002 0.0042,0.004 0.0072,0.006 0.106262,0.0851 0.211859,0.17417 0.316259,0.26768 0.003,0.003 0.007,0.006 0.01035,0.009 0.003,0.002 0.0047,0.005 0.0067,0.007 0.107419,0.0968 0.214062,0.19789 0.31936,0.30386 0.21548,0.21686 0.426252,0.45314 0.632003,0.71003 0.603541,1.82571 0.945909,3.72259 1.051099,5.63945 -0.0379,-0.0786 -0.0811,-0.15766 -0.128675,-0.23823 -0.004,-0.008 -0.005,-0.0145 -0.01035,-0.0227 -0.007,-0.012 -0.01677,-0.0237 -0.02429,-0.0357 -0.01511,-0.0243 -0.02679,-0.0485 -0.04289,-0.0729 -0.02119,-0.0321 -0.04718,-0.0636 -0.07028,-0.0956 -0.0123,-0.0168 -0.02442,-0.0334 -0.03721,-0.0501 -0.0527,-0.0698 -0.110101,-0.13857 -0.172082,-0.20619 -0.0021,-0.002 -0.0026,-0.004 -0.0047,-0.005 -7.94e-4,-7.9e-4 -0.0021,-0.002 -0.0031,-0.003 -0.419028,-0.45365 -1.055269,-0.83605 -1.991608,-0.93017 -0.207931,-2.40454 -1.036868,-3.75668 -1.976107,-4.48345 -0.95449,-0.73856 -1.999937,-0.83887 -2.571937,-0.82734 -0.2536,0.005 -0.39768,0.0311 -0.41496,0.0341 -5.3e-4,0 -0.001,5.3e-4 -0.002,5.3e-4 -1.94578,-6e-5 -4.44654,1.24718 -6.48022,2.48512 -1.94134,1.18172 -3.36602,2.2999 -3.50005,2.40554 l -2.1456,-2.14612 v -1.90066 l 2.1301,2.47065 0.0884,0.10283 0.10077,-0.091 c 0,0 0.17372,-0.14817 0.3421,-0.2899 0.11333,-0.0946 0.26331,-0.21553 0.4315,-0.34882 0.071,-0.0562 0.12678,-0.1026 0.2067,-0.16433 0.0225,-0.0174 0.0497,-0.037 0.0729,-0.0548 0.16823,-0.12898 0.35886,-0.27034 0.56121,-0.41703 0.06,-0.0435 0.12065,-0.0871 0.18345,-0.13177 0.23855,-0.16975 0.49269,-0.34648 0.76843,-0.52813 0.0129,-0.008 0.0238,-0.0163 0.0367,-0.0248 0.0316,-0.0207 0.0661,-0.0417 0.0982,-0.0625 0.17178,-0.11161 0.3504,-0.2245 0.53433,-0.33745 0.0657,-0.0403 0.13233,-0.0806 0.19947,-0.12092 0.21377,-0.12842 0.43262,-0.25655 0.65991,-0.38293 0.01,-0.005 0.0184,-0.0107 0.0279,-0.016 0.24591,-0.13625 0.50065,-0.26971 0.76016,-0.39997 0.05,-0.0251 0.10092,-0.0496 0.15141,-0.0744 0.23549,-0.11571 0.47534,-0.22837 0.71985,-0.3359 0.0365,-0.0161 0.0723,-0.0327 0.10904,-0.0486 0.0747,-0.0323 0.15036,-0.0633 0.22583,-0.0946 0.11244,-0.0467 0.22559,-0.0921 0.33951,-0.13642 0.0771,-0.03 0.1543,-0.06 0.23203,-0.0889 0.14455,-0.0536 0.29018,-0.10474 0.43666,-0.154 0.0904,-0.0304 0.18131,-0.0592 0.27234,-0.0879 0.13569,-0.0426 0.27183,-0.0837 0.40876,-0.12196 0.0684,-0.0191 0.13698,-0.0373 0.20567,-0.0553 0.14828,-0.0387 0.29717,-0.0745 0.44649,-0.10748 0.0516,-0.0114 0.10285,-0.0245 0.15451,-0.0351 0.19764,-0.0408 0.39608,-0.0759 0.59479,-0.10542 0.0404,-0.006 0.081,-0.0105 0.12144,-0.016 0.16609,-0.0227 0.33234,-0.0408 0.49868,-0.0548 0.0687,-0.006 0.13751,-0.0123 0.20619,-0.0165 0.0465,-0.003 0.0931,-0.006 0.13953,-0.008 0.14072,-0.006 0.28122,-0.0109 0.42168,-0.0103 z m 86.796773,0.3421 c 0.91678,0 1.69514,0.3175 2.33474,0.9524 0.6396,0.62497 0.97517,1.54253 1.00717,2.7528 h -6.71587 c -0.0106,-1.14083 0.30348,-2.04319 0.9431,-2.70785 0.63959,-0.66465 1.45012,-0.99735 2.43086,-0.99735 z m -44.095503,5.37176 v 0.83354 c 0,1.00195 -0.05841,1.68151 -0.1757,2.03864 -0.170571,0.54561 -0.527584,1.00693 -1.071253,1.38389 -0.735549,0.49602 -1.508551,0.74414 -2.318721,0.74414 -0.724881,0 -1.322056,-0.2137 -1.791104,-0.64027 -0.469051,-0.42657 -0.703318,-0.93244 -0.703318,-1.51773 0,-0.59522 0.293224,-1.08589 0.879533,-1.47278 0.383759,-0.23809 1.199113,-0.48115 2.446364,-0.72916 1.24723,-0.248 2.158547,-0.4617 2.734199,-0.64027 z m -39.064282,1.30483 c 0.152519,-0.004 0.295537,5.3e-4 0.433049,0.01 v 5.3e-4 c 0.593867,0.0416 1.049041,0.20286 1.40508,0.42272 0.028,0.0174 0.05692,0.0341 0.08372,0.0522 0.0612,0.0412 0.118205,0.0847 0.173117,0.12919 0.0289,0.0236 0.05796,0.047 0.08526,0.0713 0.0477,0.0424 0.09249,0.0859 0.135393,0.13022 0.0267,0.0277 0.05313,0.0554 0.07803,0.0837 0.0401,0.0454 0.0785,0.0914 0.114204,0.13798 0.02151,0.0281 0.04201,0.0565 0.06201,0.0848 0.0334,0.0471 0.06558,0.0942 0.09508,0.14159 0.01791,0.0289 0.03456,0.0579 0.05116,0.0868 0.0267,0.0465 0.05235,0.093 0.07545,0.13901 0.015,0.03 0.02868,0.0593 0.04238,0.0889 0.02011,0.0434 0.04006,0.0865 0.05736,0.12868 0.01241,0.0304 0.0231,0.0599 0.03411,0.0894 0.0158,0.0423 0.03176,0.0845 0.04496,0.12454 0.007,0.0218 0.01323,0.042 0.01963,0.063 0.01159,0.038 0.02265,0.076 0.03204,0.1111 0.02151,0.0809 0.03336,0.14282 0.04496,0.20309 0.005,0.0274 0.015,0.0661 0.0186,0.0884 0.0105,0.0658 0.01603,0.11278 0.01654,0.11937 l 0.0011,0.0305 c -0.006,0.78743 -0.0706,1.5718 -0.161745,2.35335 -0.0531,-0.28825 -0.127937,-0.54076 -0.219626,-0.76636 -0.007,-0.0168 -0.01326,-0.0332 -0.02016,-0.0496 -0.02291,-0.0537 -0.04673,-0.10636 -0.07183,-0.15659 -0.007,-0.014 -0.01254,-0.0297 -0.01963,-0.0434 -0.01511,-0.029 -0.03216,-0.0549 -0.04806,-0.0827 -0.01669,-0.0293 -0.03263,-0.0594 -0.05013,-0.0873 -0.031,-0.0495 -0.06417,-0.0961 -0.09767,-0.14159 -0.01249,-0.017 -0.02336,-0.0363 -0.03617,-0.0527 -0.01249,-0.016 -0.02699,-0.029 -0.03979,-0.0444 -0.0357,-0.0431 -0.07149,-0.0855 -0.109553,-0.12454 -0.0217,-0.0222 -0.04468,-0.0422 -0.06718,-0.0631 -0.0331,-0.0309 -0.06671,-0.0608 -0.101286,-0.0889 -0.02259,-0.0182 -0.04553,-0.0357 -0.06873,-0.0527 -0.0456,-0.0336 -0.09219,-0.065 -0.140042,-0.094 -0.0108,-0.007 -0.02114,-0.0139 -0.03204,-0.0202 -0.120938,-0.0702 -0.24807,-0.12736 -0.38137,-0.17001 -0.0145,-0.005 -0.02984,-0.008 -0.04444,-0.0119 -0.072,-0.0213 -0.145473,-0.0389 -0.220141,-0.0532 -0.009,-0.002 -0.01892,-0.004 -0.02843,-0.005 -0.0743,-0.0133 -0.149592,-0.0238 -0.226343,-0.0305 -2.59e-4,-3e-5 -7.94e-4,3e-5 -0.0011,0 h -5.29e-4 c -0.265578,-0.0231 -0.546309,-0.004 -0.835089,0.0424 -0.01,0.002 -0.01998,0.004 -0.02997,0.005 -0.159028,0.0265 -0.320347,0.0615 -0.484206,0.10541 -0.0364,0.01 -0.07251,0.0181 -0.109038,0.0284 -0.0611,0.0176 -0.12242,0.0367 -0.18397,0.0563 -0.0912,0.0287 -0.182928,0.0595 -0.274918,0.0925 -0.03,0.0109 -0.05982,0.0207 -0.08992,0.032 -0.0587,0.0218 -0.117803,0.0479 -0.176734,0.0713 -0.122621,0.0491 -0.245253,0.10041 -0.368453,0.15555 -0.0904,0.0402 -0.180375,0.0814 -0.270785,0.12454 -0.0231,0.0111 -0.04615,0.0208 -0.06925,0.032 -0.0624,0.0303 -0.124352,0.0632 -0.18655,0.0946 -0.139102,0.0704 -0.276992,0.14241 -0.414962,0.21807 -0.107751,0.0588 -0.214601,0.11823 -0.320911,0.17932 -0.24123,0.13949 -0.47946,0.28311 -0.71159,0.43098 -0.14378,0.0911 -0.27886,0.18185 -0.41702,0.27389 -0.0494,0.033 -0.10119,0.0657 -0.14987,0.0987 -0.0237,0.0161 -0.0452,0.0315 -0.0687,0.0475 -0.14873,0.10147 -0.29125,0.19955 -0.43098,0.29921 -0.017,0.0121 -0.0322,0.0236 -0.0491,0.0357 -0.44059,0.3158 -0.82991,0.61208 -1.14567,0.86402 -0.0846,0.0672 -0.14313,0.11555 -0.21652,0.17519 -0.0843,0.0687 -0.14209,0.11524 -0.21084,0.1726 -0.21195,0.1761 -0.37613,0.31597 -0.42168,0.35605 l -0.73794,-0.84075 -1.44023,-1.6428 c 4.34359,-3.17657 7.141104,-4.21232 8.897654,-4.25917 z m 0.666625,3.00757 h 5.29e-4 c 0.11651,-5.3e-4 0.228524,0.007 0.337447,0.0207 0.0164,0.002 0.03289,0.004 0.04909,0.007 0.0388,0.006 0.077,0.0128 0.114721,0.0207 0.0209,0.004 0.04151,0.009 0.06201,0.0139 0.0426,0.0104 0.0851,0.0215 0.126089,0.0346 2.65e-4,1e-4 7.94e-4,-1e-4 0.0011,0 0.0021,5.3e-4 0.0032,0.002 0.0052,0.002 0.0906,0.0293 0.177149,0.0662 0.260448,0.10904 0.014,0.007 0.02858,0.0135 0.04238,0.0212 0.0283,0.0156 0.05528,0.0338 0.08268,0.0512 0.0277,0.0177 0.05537,0.0357 0.08217,0.0553 0.0213,0.0155 0.04245,0.0314 0.06305,0.0481 0.0362,0.0293 0.0711,0.0605 0.105421,0.0935 0.0109,0.0105 0.02175,0.0206 0.03255,0.0315 0.0476,0.0484 0.09411,0.0998 0.137978,0.15606 0.0435,0.0558 0.08439,0.11695 0.124023,0.18139 0.009,0.014 0.01691,0.029 0.02532,0.0434 0.03,0.0514 0.0589,0.10501 0.0863,0.16175 0.01,0.0204 0.01945,0.0414 0.02894,0.0625 0.027,0.0598 0.0528,0.12249 0.077,0.1881 0.006,0.016 0.01228,0.0312 0.0181,0.0475 0.0613,0.17529 0.112149,0.37051 0.151929,0.58756 2.59e-4,0.002 7.94e-4,0.003 0.0011,0.005 7.94e-4,0.004 2.65e-4,0.008 0.0016,0.0119 0.01839,0.10239 0.03476,0.20988 0.04806,0.32195 0.0021,0.0152 0.0026,0.0306 0.0047,0.046 0.0122,0.11112 0.02193,0.22653 0.02894,0.34726 5.29e-4,0.009 0.0011,0.0174 0.0021,0.0263 0.007,0.13364 0.01191,0.27295 0.01241,0.41858 -1.243229,7.40544 -6.220468,13.55873 -13.059148,16.43517 0.96333,-0.83231 1.56285,-1.68052 1.91254,-2.37091 0.40735,-0.80423 0.48664,-1.34754 0.49868,-1.43661 0.14561,-0.0849 5.272862,-3.1043 7.494632,-9.30537 0.633449,-1.76799 0.770866,-2.86314 0.617016,-3.55379 -0.0769,-0.34533 -0.233108,-0.59119 -0.4377,-0.74621 -0.2046,-0.15503 -0.449448,-0.21652 -0.693497,-0.22479 -0.75929,-0.0258 -1.558562,0.43718 -1.558562,0.43718 l -0.01188,0.007 -0.01241,0.0109 -4.290179,3.44682 -2.2257,-2.74247 0.0191,-1.49707 2.13475,2.43345 0.0879,0.10025 0.0992,-0.0889 c 0,0 0.15714,-0.13484 0.31988,-0.27234 0.0694,-0.0584 0.15719,-0.13051 0.24804,-0.20515 0.0816,-0.0669 0.1622,-0.13295 0.2589,-0.21033 0.20404,-0.16336 0.43726,-0.34557 0.69815,-0.54208 0.2031,-0.1529 0.42217,-0.31319 0.65164,-0.47594 0.0416,-0.0295 0.0853,-0.0592 0.12764,-0.0889 0.19679,-0.13785 0.40225,-0.27652 0.61237,-0.41445 0.0742,-0.0486 0.14665,-0.0976 0.22221,-0.14572 0.0349,-0.0223 0.0702,-0.0445 0.10542,-0.0667 0.17855,-0.11224 0.35945,-0.22318 0.54311,-0.33021 0.670716,-0.39087 1.366615,-0.73579 2.028306,-0.96739 0.0685,-0.0237 0.13697,-0.0471 0.20464,-0.0682 0.0437,-0.0138 0.08739,-0.0276 0.130741,-0.0403 0.265999,-0.0771 0.524859,-0.13415 0.771527,-0.16433 0.004,-5.2e-4 0.008,-0.001 0.01188,-0.002 0.129326,-0.0154 0.255572,-0.0237 0.377756,-0.0243 z m 13.027629,5.06791 c -1.02888,0 -1.908546,0.14463 -2.639116,0.43356 -0.724479,0.28894 -1.281576,0.71086 -1.671217,1.26608 -0.38354,0.54955 -0.575675,1.14158 -0.575675,1.77611 0,0.9858 0.41112,1.82182 1.233001,2.50735 0.584459,0.48723 1.600972,0.8977 3.049942,1.23196 1.126291,0.26061 1.848146,0.44218 2.164725,0.54416 0.462701,0.15296 0.78526,0.33401 0.967902,0.54363 0.18874,0.20396 0.283186,0.45315 0.283186,0.74776 0,0.4589 -0.222197,0.86157 -0.666626,1.20716 -0.438351,0.33993 -1.093126,0.50953 -1.963705,0.50953 -0.821889,0 -1.476148,-0.19249 -1.963188,-0.57774 -0.480959,-0.38526 -0.800825,-0.98873 -0.959114,-1.81023 l -2.629813,0.23823 c 0.176549,1.39371 0.718092,2.45604 1.625224,3.18689 0.907119,0.72518 2.207014,1.08779 3.899504,1.08779 1.162819,0 2.134237,-0.15035 2.913517,-0.45062 0.779269,-0.30594 1.381988,-0.77051 1.808157,-1.39372 0.426159,-0.6232 0.639239,-1.29171 0.639239,-2.00556 0,-0.7875 -0.179795,-1.44768 -0.538985,-1.98024 -0.353111,-0.53822 -0.846347,-0.96014 -1.479497,-1.26607 -0.627082,-0.31161 -1.597981,-0.61178 -2.913002,-0.90072 -1.315019,-0.28894 -2.143144,-0.56675 -2.484086,-0.83303 -0.267859,-0.20962 -0.401523,-0.46193 -0.401523,-0.75654 0,-0.32293 0.142782,-0.58045 0.428913,-0.77308 0.444428,-0.30027 1.059489,-0.45062 1.844847,-0.45062 0.761021,0 1.329941,0.14203 1.707391,0.4253 0.38355,0.27761 0.633637,0.73646 0.749307,1.37666 l 2.702677,-0.11059 c -0.0426,-1.14443 -0.489707,-2.05953 -1.342036,-2.74505 -0.846251,-0.68552 -2.109639,-1.02836 -3.789949,-1.02836 z m 18.283121,0.21239 v 12.45867 h 2.566252 V 156.1002 Z m 25.621175,0 v 2.20968 h 2.566255 v -2.20968 z m -32.183048,3.22978 c -0.949749,0 -1.811158,0.19509 -2.584339,0.58601 -0.767099,0.39091 -1.360699,0.95746 -1.780768,1.69963 -0.420081,0.74218 -0.629936,1.51006 -0.629936,2.30322 0,1.03679 0.209855,1.91755 0.629936,2.64273 0.420069,0.71952 1.031915,1.2663 1.835547,1.64022 0.809718,0.37392 1.659313,0.5612 2.548162,0.5612 1.436791,0 2.626667,-0.44792 3.570328,-1.34307 0.949737,-0.90081 1.424717,-2.03389 1.424717,-3.39927 0,-1.35405 -0.468545,-2.47309 -1.406114,-3.3569 -0.937562,-0.88948 -2.140302,-1.33377 -3.607533,-1.33377 z m 26.379268,0 c -1.442879,0 -2.587141,0.41619 -3.433382,1.24902 -0.846241,0.82716 -1.26969,1.98573 -1.26969,3.47575 0,1.47302 0.420237,2.62588 1.26039,3.45871 0.846238,0.83282 1.978678,1.24953 3.397208,1.24953 1.24805,0 2.243124,-0.2752 2.985865,-0.82475 0.742759,-0.54956 1.245092,-1.36217 1.506884,-2.43862 l -2.52026,-0.39945 c -0.127859,0.62886 -0.346834,1.07367 -0.657325,1.33428 -0.310489,0.25495 -0.709258,0.38241 -1.196308,0.38241 -0.65142,0 -1.172022,-0.2211 -1.561664,-0.66301 -0.38354,-0.44191 -0.575675,-1.19834 -0.575675,-2.26911 0,-0.96313 0.188905,-1.64881 0.566375,-2.05673 0.38354,-0.41358 0.895033,-0.62011 1.534274,-0.62011 0.48096,0 0.870609,0.11913 1.168919,0.35708 0.3044,0.23795 0.499221,0.59172 0.584461,1.06195 l 2.529563,-0.42478 c -0.304401,-0.96879 -0.806757,-1.68829 -1.506887,-2.15852 -0.69405,-0.4759 -1.631667,-0.71365 -2.812748,-0.71365 z m 14.922605,0 c -0.94975,0 -1.81116,0.19509 -2.58434,0.58601 -0.7671,0.39091 -1.36069,0.95746 -1.78077,1.69963 -0.42007,0.74218 -0.62993,1.51006 -0.62993,2.30322 0,1.03679 0.20986,1.91755 0.62993,2.64273 0.42008,0.71952 1.03192,1.2663 1.83555,1.64022 0.80972,0.37392 1.65931,0.5612 2.54816,0.5612 1.43679,0 2.62668,-0.44792 3.57033,-1.34307 0.94974,-0.90081 1.42472,-2.03389 1.42472,-3.39927 0,-1.35405 -0.46855,-2.47309 -1.40612,-3.3569 -0.93756,-0.88948 -2.14031,-1.33377 -3.60753,-1.33377 z m 12.12329,0 c -1.28459,0 -2.34995,0.50983 -3.19619,1.52962 v -1.32602 h -2.38331 v 9.02529 h 2.56625 v -4.08761 c 0,-1.00845 0.0639,-1.69985 0.19172,-2.07377 0.13394,-0.37392 0.37708,-0.6741 0.73018,-0.90072 0.35311,-0.22662 0.75188,-0.34003 1.19631,-0.34003 0.34703,0 0.64273,0.0796 0.88625,0.23823 0.24961,0.15863 0.42888,0.38233 0.53847,0.67127 0.10959,0.28328 0.16433,0.91225 0.16433,1.88671 v 4.60592 h 2.56626 v -5.60896 c 0,-0.69685 -0.0488,-1.23218 -0.14625,-1.6061 -0.0913,-0.37392 -0.25877,-0.70792 -0.50229,-1.00253 -0.23744,-0.2946 -0.59059,-0.53547 -1.05937,-0.72243 -0.46879,-0.19263 -0.98618,-0.28887 -1.55236,-0.28887 z m 9.1007399,0 c -1.2845799,0 -2.3472599,0.42452 -3.1873999,1.27434 -0.84015,0.84415 -1.25988,2.01417 -1.25988,3.50986 0,1.25207 0.31935,2.28891 0.9586,3.1104 0.80971,1.02545 2.05807,1.53841 3.7444799,1.53841 1.06541,0 1.95099,-0.22682 2.6572,-0.68006 0.71231,-0.4589 1.2329,-1.12481 1.56166,-1.99729 l -2.55695,-0.39895 c -0.14003,0.45324 -0.34718,0.78152 -0.62115,0.98547 -0.27396,0.20396 -0.61157,0.30593 -1.01338,0.30593 -0.59054,0 -1.0837699,-0.19561 -1.4794899,-0.58653 -0.39573,-0.39659 -0.60288,-0.94856 -0.62115,-1.65675 h 6.4290599 c 0.0365,-1.82994 -0.36224,-3.18725 -1.19631,-4.07106 -0.83406,-0.88948 -1.97241,-1.33377 -3.41529,-1.33377 z m 9.77613996,0 c -1.39417,0 -2.42303996,0.26584 -3.08662996,0.7984 -0.66361,0.53255 -0.99529,1.19013 -0.99529,1.97197 0,0.86682 0.38373,1.54365 1.15084,2.03088 0.55401,0.35126 1.86571996,0.73936 3.93567,1.16427 0.44443,0.0963 0.73051,0.2014 0.85835,0.31471 0.12176,0.11898 0.18293,0.26881 0.18293,0.4501 0,0.26628 -0.11271,0.47854 -0.33796,0.63718 -0.33485,0.22661 -0.83397,0.34003 -1.49758004,0.34003 -0.60271,0 -1.07179,-0.11862 -1.40663,-0.35657 -0.33484996,-0.24362 -0.55703996,-0.5979 -0.66662996,-1.06247 l -2.57504,0.36535 c 0.23743,0.85549 0.73978,1.53232 1.50689,2.03089 0.77318,0.49856 1.82030996,0.74827 3.14140996,0.74827 1.45505004,0 2.55369004,-0.29757 3.29644004,-0.89245 0.74274,-0.59487 1.11414,-1.30604 1.11414,-2.1332 0,-0.75918 -0.26783,-1.35121 -0.80357,-1.77612 -0.54184,-0.41925 -1.4977,-0.77301 -2.86752,-1.06195 -1.36373004189,-0.28894 -2.16128004,-0.51317 -2.39262,-0.6718 -0.17047,-0.11897 -0.2558,-0.26308 -0.2558,-0.43305 0,-0.19829 0.0977,-0.36008 0.29248996,-0.48472 0.29222,-0.17563 0.77634,-0.26303 1.45211,-0.26303 0.53576,0 0.94634004,0.0931 1.23248004,0.28008 0.29222,0.18696 0.49027,0.45593 0.59376,0.80719 l 2.42001,-0.416 c -0.24353,-0.7875 -0.68791,-1.38265 -1.33325,-1.7849 -0.64533,-0.40225 -1.63179,-0.60306 -2.95900004,-0.60306 z m -61.07792086,0.2036 v 5.71076 c 0,0.84982 0.115925,1.51573 0.347266,1.9973 0.231349,0.48156 0.605438,0.85562 1.122928,1.12189 0.517491,0.26628 1.101961,0.39946 1.753381,0.39946 0.639241,0 1.245179,-0.1389 1.81746,-0.41651 0.578371,-0.27761 1.04422,-0.65738 1.397331,-1.13895 v 1.35134 h 2.383316 v -9.02529 h -2.566249 v 3.80752 c 0,1.29173 -0.0639,2.10435 -0.19172,2.43861 -0.127852,0.3286 -0.365083,0.60641 -0.712102,0.83302 -0.34702,0.22096 -0.739884,0.33125 -1.178224,0.33125 -0.38354,0 -0.700202,-0.0822 -0.949812,-0.24649 -0.249611,-0.16997 -0.422971,-0.39628 -0.520383,-0.67955 -0.0913,-0.28894 -0.13694,-1.06826 -0.13694,-2.33733 v -4.14703 z m 20.958926,0 v 9.02529 h 2.566255 v -9.02529 z m 30.4978849,1.62316 c 0.52357,0 0.96797,0.18156 1.33325,0.54415 0.36529,0.35693 0.5574,0.88081 0.57567,1.572 h -3.8354199 c -0.006,-0.65153 0.17319,-1.16709 0.53847,-1.54668 0.36528,-0.37958 0.8279199,-0.56947 1.3880299,-0.56947 z m -62.6716309,0.11937 c 0.66969,0 1.229479,0.23775 1.680001,0.71365 0.45661,0.4759 0.685229,1.15586 0.685229,2.03967 0,0.90648 -0.228619,1.59736 -0.685229,2.07326 -0.450522,0.4759 -1.010311,0.71417 -1.680001,0.71417 -0.669689,0 -1.232704,-0.23827 -1.689303,-0.71417 -0.45661,-0.4759 -0.685229,-1.16106 -0.685229,-2.05621 0,-0.89514 0.228619,-1.58082 0.685229,-2.05672 0.456599,-0.4759 1.019614,-0.71365 1.689303,-0.71365 z m 41.301871,0 c 0.66968,0 1.23001,0.23775 1.68052,0.71365 0.45661,0.4759 0.68471,1.15586 0.68471,2.03967 0,0.90648 -0.2281,1.59736 -0.68471,2.07326 -0.45051,0.4759 -1.01084,0.71417 -1.68052,0.71417 -0.66969,0 -1.2327,-0.23827 -1.6893,-0.71417 -0.45661,-0.4759 -0.68523,-1.16106 -0.68523,-2.05621 0,-0.89514 0.22862,-1.58082 0.68523,-2.05672 0.4566,-0.4759 1.01961,-0.71365 1.6893,-0.71365 z m -77.925473,9.64747 0.003,0.005 a 21.922618,21.922618 0 0 1 -0.0155,0.005 c 0.004,-0.003 0.008,-0.006 0.0124,-0.009 z"
       id="path841" />
  </g>
</svg>
