<?xml version="1.0" encoding="UTF-8" standalone="no"?>
<!-- Created with Inkscape (http://www.inkscape.org/) -->

<svg
   xmlns:dc="http://purl.org/dc/elements/1.1/"
   xmlns:cc="http://creativecommons.org/ns#"
   xmlns:rdf="http://www.w3.org/1999/02/22-rdf-syntax-ns#"
   xmlns:svg="http://www.w3.org/2000/svg"
   xmlns="http://www.w3.org/2000/svg"
   xmlns:sodipodi="http://sodipodi.sourceforge.net/DTD/sodipodi-0.dtd"
   xmlns:inkscape="http://www.inkscape.org/namespaces/inkscape"
   width="319.30972mm"
   height="74.321503mm"
   viewBox="0 0 319.30972 74.321503"
   version="1.1"
   id="svg8"
   inkscape:version="0.92.4 5da689c313, 2019-01-14"
   sodipodi:docname="logo_serva_new.svg">
  <defs
     id="defs2">
	
	
	
	
	
	
	
	
	
	

	
	
	
	
	
	
	
	
	
	
	
	
	
	
	
	
	
	
	
	
	
	
	
	
	
	
	
	
	

	
	
	
	
	
	

		
	
		
	
		
	
		
	
		
	
		
	</defs>
  <sodipodi:namedview
     id="base"
     pagecolor="#ffffff"
     bordercolor="#666666"
     borderopacity="1.0"
     inkscape:pageopacity="0.0"
     inkscape:pageshadow="2"
     inkscape:zoom="0.49497475"
     inkscape:cx="574.44738"
     inkscape:cy="2.8640716"
     inkscape:document-units="mm"
     inkscape:current-layer="layer1"
     showgrid="false"
     inkscape:window-width="1366"
     inkscape:window-height="740"
     inkscape:window-x="0"
     inkscape:window-y="0"
     inkscape:window-maximized="1" />
  <metadata
     id="metadata5">
    <rdf:RDF>
      <cc:Work
         rdf:about="">
        <dc:format>image/svg+xml</dc:format>
        <dc:type
           rdf:resource="http://purl.org/dc/dcmitype/StillImage" />
        <dc:title></dc:title>
      </cc:Work>
    </rdf:RDF>
  </metadata>
  <g
     inkscape:label="Layer 1"
     inkscape:groupmode="layer"
     id="layer1"
     transform="translate(77.854975,-107.54075)">
    <g
       id="g4063"
       style="fill:#ffffff">
      <path
         id="path3715"
         d="m 20.395388,136.51266 c -7.963958,0 -10.9537495,-0.39688 -12.8058329,-1.69334 -1.9049999,-1.29646 -2.5399999,-3.06916 -2.5399999,-6.985 v -1.95791 h 8.6254168 v 0.66145 c 0,1.61396 0.15875,1.79917 0.449791,1.98438 0.555625,0.37042 1.534584,0.44979 6.455834,0.44979 3.862916,0 5.979583,0 6.905625,-0.26458 0.502708,-0.13229 0.529166,-0.18521 0.529166,-1.42875 0,-1.03188 0,-1.34938 -2.328333,-1.40229 l -5.953125,-0.23813 -4.021667,-0.21167 -2.010833,-0.0794 c -6.4822915,-0.21167 -8.4666665,-2.19604 -8.4666665,-8.46667 0,-5.3975 1.5345833,-7.96396 5.2652085,-8.83708 1.534583,-0.34396 5.027083,-0.50271 10.95375,-0.50271 7.381875,0 10.080625,0.39688 11.932708,1.77271 1.666875,1.21708 2.354791,3.09562 2.354791,6.48229 0,0.50271 0,0.92604 -0.02646,1.29646 l -0.05292,0.60854 h -8.519583 l -0.02646,-0.635 c -0.07938,-1.45521 -0.185208,-1.50812 -0.449792,-1.69333 -0.47625,-0.3175 -1.640416,-0.37042 -6.535208,-0.37042 -3.175,0 -4.841875,0.0529 -5.662083,0.29104 -0.449792,0.13229 -0.582084,0.23813 -0.582084,1.16417 0,0.87312 0.264584,1.00542 0.608542,1.08479 0.687917,0.21167 3.4925,0.3175 7.805208,0.44979 8.016875,0.26459 9.895417,0.44979 11.721042,1.69334 1.931458,1.34937 2.619375,3.33375 2.619375,7.3025 0,4.9477 -1.164167,7.46125 -4.021667,8.62541 -1.561041,0.66146 -4.630208,0.89959 -12.22375,0.89959 z M 6.3460135,127.19932 v 0.635 c 0,3.86292 0.635,4.97417 1.984375,5.90021 1.5875,1.11125 4.5243745,1.45521 12.0649995,1.45521 7.3025,0 10.371667,-0.18521 11.7475,-0.76729 1.905,-0.79375 3.201458,-2.32834 3.201458,-7.38188 0,-3.51896 -0.529166,-5.13291 -2.06375,-6.21771 -1.428749,-0.97895 -2.963333,-1.16416 -11.006666,-1.4552 -5.476875,-0.15875 -7.381875,-0.29105 -8.122708,-0.50271 -1.058334,-0.26459 -1.5875,-1.05834 -1.5875,-2.35479 0,-2.80459 1.613958,-2.80459 7.567083,-2.80459 5.503333,0 6.455833,0.0794 7.249583,0.58209 0.740834,0.47625 0.926042,1.03187 1.005417,2.11666 h 6.0325 c 0,-0.18521 0,-0.37041 0,-0.58208 0,-2.93688 -0.502709,-4.47146 -1.799167,-5.42396 -1.613958,-1.19062 -4.101041,-1.53458 -11.165416,-1.53458 -5.767917,0 -9.260417,0.15875 -10.662709,0.47625 -2.6193745,0.60854 -4.2333328,2.09021 -4.2333328,7.56708 0,5.55625 1.4022916,6.95854 7.1966668,7.14375 l 2.010833,0.0794 4.021667,0.21166 5.926666,0.23813 c 2.38125,0.0265 3.598334,0.47625 3.598334,2.72521 0,3.0427 -0.661459,3.0427 -8.757709,3.0427 -5.450416,0 -6.323541,-0.0794 -7.196666,-0.68791 -0.767292,-0.50271 -0.978959,-1.19063 -1.031875,-2.40771 H 6.3460135 Z"
         class="st22"
         inkscape:connector-curvature="0"
         style="fill:#ffffff;stroke-width:0.26458332" />
      <path
         id="path3719"
         d="M 66.829763,136.08932 H 37.963721 v -28.15166 h 28.73375 v 7.64645 H 46.72143 v 2.56646 h 18.970624 v 7.22313 H 46.72143 v 2.93687 h 20.134791 v 7.77875 z m -27.543125,-1.32291 h 26.220208 v -5.10646 H 45.372055 v -5.58271 h 18.970624 v -4.60375 H 45.372055 v -5.21229 h 20.002499 v -5.00063 H 39.286638 Z"
         class="st22"
         inkscape:connector-curvature="0"
         style="fill:#ffffff;stroke-width:0.26458332" />
      <path
         id="path3723"
         d="m 99.770387,136.08932 h -8.757708 v -2.06375 c 0,-2.80458 -0.132292,-3.70416 -0.582083,-4.23333 -0.3175,-0.39688 -0.714375,-0.50271 -3.704167,-0.50271 h -9.974791 v 6.79979 h -8.863542 v -28.15166 h 18.89125 c 8.5725,0 8.73125,0 10.503958,1.16416 2.116667,1.37584 2.751666,3.30729 2.751666,8.22854 0,3.73063 -0.291041,5.76792 -1.957916,7.1173 -0.264583,0.21166 -0.502708,0.39687 -0.79375,0.55562 2.248958,1.00542 2.619375,3.20146 2.487083,7.96396 z m -7.434791,-1.32291 h 6.111875 v -1.82563 c 0.15875,-6.16479 -0.529167,-6.82625 -3.757084,-7.22312 l -0.02646,-1.29646 c 1.481667,-0.23813 2.037292,-0.52917 2.566458,-0.97896 1.137709,-0.92604 1.481667,-2.30188 1.481667,-6.08542 0,-4.89479 -0.661458,-6.13833 -2.143125,-7.14375 -1.42875,-0.92604 -1.42875,-0.92604 -9.763125,-0.92604 H 69.237471 v 25.50583 h 6.19125 v -6.79979 h 11.324166 c 3.042709,0 3.96875,0.0529 4.709584,0.97896 0.767291,0.87313 0.899583,2.03729 0.899583,5.08 v 0.71438 z m -5.635625,-12.1973 h -11.27125 v -7.91104 h 11.350625 c 3.4925,0.0529 3.624791,0.0529 4.259791,0.34396 1.217084,0.55563 1.455209,1.82563 1.455209,3.54542 0,1.64041 -0.185209,2.80458 -1.084792,3.43958 -0.687917,0.50271 -0.79375,0.50271 -4.709583,0.58208 z m -9.948333,-1.32291 h 9.948333 c 3.571875,-0.0794 3.571875,-0.0794 3.915833,-0.34396 l 0.02646,-0.0265 c 0.264584,-0.18521 0.529167,-0.58208 0.529167,-2.35479 0,-1.85208 -0.343958,-2.16958 -0.687917,-2.32833 -0.370416,-0.18521 -0.47625,-0.18521 -3.730625,-0.21167 h -0.05292 -9.948333 z"
         class="st22"
         inkscape:connector-curvature="0"
         style="fill:#ffffff;stroke-width:0.26458332" />
      <path
         id="path3727"
         d="M 124.00622,136.08932 H 111.59726 L 98.738512,107.93766 h 9.736668 l 9.02229,20.08187 h 0.58208 l 8.91646,-20.08187 h 9.68375 z m -11.56229,-1.32291 h 10.68917 l 11.50937,-25.50584 h -6.79979 l -8.91646,20.08188 h -2.30187 l -9.0223,-20.08188 h -6.82625 z"
         class="st22"
         inkscape:connector-curvature="0"
         style="fill:#ffffff;stroke-width:0.26458332" />
      <path
         id="path3731"
         d="m 169.3558,136.08932 h -10.05416 l -2.11667,-4.55083 h -15.53104 l -2.11667,4.55083 h -10.10708 l 13.75833,-28.15166 h 12.56771 z m -9.2075,-1.32291 h 7.09084 l -12.32959,-25.50584 h -10.90083 l -12.46187,25.50584 h 7.14375 l 2.11666,-4.55084 h 17.22438 z m -4.1275,-9.07521 h -13.14979 l 5.42396,-11.50938 h 2.32833 z m -11.05958,-1.32292 h 8.96937 l -4.15395,-8.86354 h -0.635 z"
         class="st22"
         inkscape:connector-curvature="0"
         style="fill:#ffffff;stroke-width:0.26458332" />
      <path
         id="path3735"
         d="m 177.63726,136.08932 h -8.86354 v -28.15166 h 27.49021 v 7.64645 h -18.62667 v 3.75709 h 17.70063 v 7.48771 h -17.70063 z m -7.54062,-1.32291 h 6.2177 v -9.28688 h 17.70063 v -4.81542 h -17.70063 v -6.40291 h 18.62667 v -5.00063 h -24.84437 z"
         class="st22"
         inkscape:connector-curvature="0"
         style="fill:#ffffff;stroke-width:0.26458332" />
      <path
         style="fill:#ffffff;stroke-width:0.26458332"
         inkscape:connector-curvature="0"
         class="st22"
         d="m 13.754347,142.57161 v 3.78355 H 7.3778885 v 2.32833 h 6.0324995 v 3.54542 H 7.3778885 v 2.56645 h 6.4029165 v 3.86292 H 4.9966385 v -16.06021 h 8.7577085 z"
         id="path3741" />
      <path
         style="fill:#ffffff;stroke-width:0.26458332"
         inkscape:connector-curvature="0"
         class="st22"
         d="m 16.453097,147.25474 v 1.71979 h 0.105833 c 0.3175,-1.37583 1.005417,-2.01083 2.248958,-2.01083 1.349375,0 2.090209,0.68791 2.54,2.38125 0.343959,-1.71979 1.031875,-2.38125 2.407709,-2.38125 1.164166,0 1.852083,0.42333 2.328333,1.48166 0.47625,1.00542 0.582083,1.95792 0.582083,4.8948 v 5.31812 h -2.090208 v -5.34458 c 0,-1.905 -0.02646,-2.11667 -0.238125,-2.54 -0.211667,-0.42334 -0.555625,-0.635 -1.190625,-0.635 -0.635,0 -1.005417,0.21166 -1.243542,0.71437 -0.238125,0.52917 -0.3175,1.21709 -0.3175,3.06917 v 4.70958 h -2.090208 v -5.31812 c 0,-1.77271 -0.02646,-2.09021 -0.211667,-2.54 -0.185208,-0.42334 -0.555625,-0.635 -1.164166,-0.635 -0.635,0 -1.031875,0.21166 -1.27,0.68791 -0.238125,0.47625 -0.3175,1.21709 -0.3175,3.09563 v 4.70958 h -2.090209 v -11.40354 h 2.010834 z"
         id="path3743" />
      <path
         style="fill:#ffffff;stroke-width:0.26458332"
         inkscape:connector-curvature="0"
         class="st22"
         d="m 27.618513,147.25474 h 1.984375 v 1.53458 h 0.105834 c 0.370416,-1.40229 0.9525,-1.82562 2.566458,-1.82562 1.455208,0 2.196041,0.34396 2.672291,1.24354 0.449792,0.82021 0.582084,1.905 0.582084,4.78896 0,4.97416 -0.555625,5.92666 -3.33375,5.92666 -1.42875,0 -1.957917,-0.39687 -2.354792,-1.74625 H 29.73518 v 6.21771 h -2.090208 v -16.13958 z m 2.090209,5.82083 c 0,2.2225 0.3175,2.64584 1.852083,2.64584 0.79375,0 1.296458,-0.15875 1.534583,-0.50271 0.238125,-0.37042 0.3175,-0.9525 0.3175,-2.46063 0,-2.19604 -0.291042,-2.59291 -1.772708,-2.59291 -1.693333,0 -1.931458,0.37041 -1.931458,2.91041 z"
         id="path3745" />
      <path
         style="fill:#ffffff;stroke-width:0.26458332"
         inkscape:connector-curvature="0"
         class="st22"
         d="m 38.254763,147.25474 v 1.71979 h 0.105833 c 0.396875,-1.45521 0.978959,-2.01083 2.143125,-2.01083 1.693334,0 2.248959,1.16416 2.248959,4.57729 v 0.76729 h -1.984375 c 0,-1.69333 -0.238125,-2.14312 -1.11125,-2.14312 -0.47625,0 -0.873125,0.29104 -1.058334,0.8202 -0.211666,0.55563 -0.264583,1.19063 -0.264583,2.93688 v 4.70958 H 36.24393 v -11.40354 h 2.010833 z"
         id="path3747" />
      <path
         style="fill:#ffffff;stroke-width:0.26458332"
         inkscape:connector-curvature="0"
         class="st22"
         d="m 50.822471,155.00703 c -0.15875,3.14854 -0.926041,3.91583 -3.915833,3.91583 -1.613958,0 -2.38125,-0.29104 -2.910417,-1.05833 -0.555625,-0.84667 -0.714375,-1.98437 -0.714375,-4.89479 0,-3.06917 0.15875,-4.18042 0.767292,-5.02708 0.555625,-0.7673 1.243542,-1.00542 3.069167,-1.00542 1.905,0 2.566458,0.23812 3.069166,1.08479 0.502709,0.84667 0.687917,2.11667 0.687917,4.70958 0,0.1323 0,0.66146 0,1.16417 h -5.476875 c 0,1.16417 0.05292,1.53458 0.264583,1.85208 0.211667,0.34396 0.661459,0.47625 1.42875,0.47625 1.349375,0 1.5875,-0.1852 1.666875,-1.21708 z m -2.06375,-3.46604 c 0,-0.89958 -0.02646,-1.11125 -0.15875,-1.37583 -0.185208,-0.39688 -0.608541,-0.58209 -1.455208,-0.58209 -1.402292,0 -1.74625,0.37042 -1.772708,1.95792 z"
         id="path3749" />
      <path
         style="fill:#ffffff;stroke-width:0.26458332"
         inkscape:connector-curvature="0"
         class="st22"
         d="m 53.600596,155.00703 c 0.02646,0.97896 0.449792,1.27 1.74625,1.27 1.349375,0 1.74625,-0.23812 1.74625,-1.05833 0,-0.44979 -0.185208,-0.76729 -0.47625,-0.84667 -0.291041,-0.0529 -0.79375,-0.0794 -2.8575,-0.0794 -1.5875,-0.0529 -2.248958,-1.05834 -2.248958,-3.4925 0,-1.74625 0.3175,-2.83105 0.978958,-3.33375 0.449792,-0.37042 1.42875,-0.52917 2.910417,-0.52917 1.905,0 2.592917,0.23812 3.069167,1.05833 0.291041,0.47625 0.396875,1.08479 0.449791,2.46063 h -2.116666 c -0.05292,-0.37042 -0.07938,-0.42334 -0.132292,-0.52917 -0.185208,-0.23812 -0.608542,-0.34396 -1.322917,-0.34396 -1.322916,0 -1.719791,0.21167 -1.719791,0.9525 0,0.44979 0.15875,0.68792 0.502708,0.74084 0.343958,0.0529 0.714375,0.0794 2.8575,0.10583 1.613958,0.0265 2.248958,0.97896 2.248958,3.54542 0,3.25437 -0.767291,3.9952 -3.995208,3.9952 -2.037292,0 -2.725208,-0.23812 -3.227917,-1.19062 -0.343958,-0.635 -0.47625,-1.42875 -0.502708,-2.75167 h 2.090208 z"
         id="path3751" />
      <path
         style="fill:#ffffff;stroke-width:0.26458332"
         inkscape:connector-curvature="0"
         class="st22"
         d="m 60.003513,150.82661 c 0.05292,-1.66687 0.343958,-2.56645 0.978958,-3.20145 0.47625,-0.4498 1.455208,-0.66146 3.122083,-0.66146 1.825625,0 2.248959,0.15875 2.725209,1.13771 0.343958,0.76729 0.47625,1.64041 0.47625,3.70416 v 6.87917 h -2.010834 v -1.56104 h -0.07937 c -0.185208,0.74083 -0.396875,1.16416 -0.79375,1.48166 -0.343958,0.29105 -0.873125,0.39688 -2.2225,0.39688 -1.852083,0 -2.434166,-0.84667 -2.434166,-3.54542 0,-2.03729 0.370416,-3.175 1.190625,-3.62479 0.502708,-0.29104 1.058333,-0.37042 2.592916,-0.37042 0.978959,0 1.243542,0.15875 1.5875,0.89959 h 0.105834 v -0.60854 c 0,-1.77271 -0.15875,-2.01084 -1.42875,-2.01084 -1.508125,0 -1.666875,0.10584 -1.719792,1.13771 h -2.090208 z m 1.878541,4.20688 c 0,0.92604 0.3175,1.19062 1.455209,1.19062 1.481666,0 1.905,-0.29104 1.905,-1.29645 0,-0.4498 -0.132292,-0.79375 -0.370417,-0.9525 -0.132292,-0.10584 -0.449792,-0.1323 -1.349375,-0.1323 -1.296458,0 -1.640417,0.26459 -1.640417,1.19063 z"
         id="path3753" />
      <path
         style="fill:#ffffff;stroke-width:0.26458332"
         inkscape:connector-curvature="0"
         class="st22"
         d="m 78.921221,158.65828 h -1.984375 v -1.48167 h -0.105833 c -0.396875,1.37584 -0.9525,1.77271 -2.460625,1.77271 -1.508125,0 -2.248959,-0.3175 -2.725209,-1.21708 -0.449791,-0.87313 -0.608541,-2.01083 -0.608541,-4.86833 0,-2.88396 0.211666,-4.2598 0.820208,-5.05355 0.502708,-0.66145 1.084792,-0.87312 2.54,-0.87312 1.455208,0 1.957917,0.39687 2.354792,1.82562 h 0.07937 v -6.19125 h 2.090208 z m -5.794375,-5.84729 c 0,2.51354 0.238125,2.88396 1.799167,2.88396 0.767291,0 1.349375,-0.18521 1.561041,-0.52917 0.238125,-0.3175 0.3175,-0.92604 0.3175,-2.24896 0,-2.35479 -0.264583,-2.80458 -1.772708,-2.80458 -1.613958,0.0265 -1.905,0.42333 -1.905,2.69875 z"
         id="path3755" />
      <path
         style="fill:#ffffff;stroke-width:0.26458332"
         inkscape:connector-curvature="0"
         class="st22"
         d="m 87.229137,155.00703 c -0.15875,3.14854 -0.926041,3.91583 -3.915833,3.91583 -1.613958,0 -2.38125,-0.29104 -2.910416,-1.05833 -0.555625,-0.84667 -0.714375,-1.98437 -0.714375,-4.89479 0,-3.06917 0.15875,-4.18042 0.767291,-5.02708 0.555625,-0.7673 1.243542,-1.00542 3.069167,-1.00542 1.905,0 2.566458,0.23812 3.069166,1.08479 0.502709,0.84667 0.687917,2.11667 0.687917,4.70958 0,0.1323 0,0.66146 0,1.16417 h -5.476875 c 0,1.16417 0.05292,1.53458 0.264584,1.85208 0.211666,0.34396 0.661458,0.47625 1.42875,0.47625 1.349375,0 1.5875,-0.1852 1.666875,-1.21708 z m -2.063749,-3.46604 c 0,-0.89958 -0.02646,-1.11125 -0.15875,-1.37583 -0.185209,-0.39688 -0.608542,-0.58209 -1.455209,-0.58209 -1.402291,0 -1.74625,0.37042 -1.772708,1.95792 z"
         id="path3757" />
      <path
         style="fill:#ffffff;stroke-width:0.26458332"
         inkscape:connector-curvature="0"
         class="st22"
         d="m 93.155804,153.3137 c 0,0.9525 0.05292,1.27 0.238125,1.50812 0.211667,0.29104 0.47625,0.34396 2.169583,0.34396 2.566459,0 2.566459,0 2.566459,-1.42875 0,-0.9525 -0.185209,-1.21708 -0.9525,-1.21708 l -1.905,-0.13229 -1.27,-0.1323 -0.635,-0.0529 c -1.957917,-0.13229 -2.487084,-1.13771 -2.487084,-4.68313 0,-3.06916 0.423334,-4.445 1.508125,-4.92125 0.449792,-0.18521 1.561042,-0.29104 3.439584,-0.29104 2.301875,0 3.122083,0.21167 3.677708,0.97896 0.47625,0.66146 0.661456,1.66687 0.661456,3.57187 0,0.10584 0,0.42334 0,0.74084 h -2.328331 c -0.02646,-0.89959 -0.05292,-1.11125 -0.238125,-1.32292 -0.211667,-0.23812 -0.502708,-0.29104 -2.196042,-0.29104 -2.037291,0 -2.196041,0.10583 -2.196041,1.27 0,0.60854 0.105833,0.92604 0.343958,1.03187 0.211667,0.1323 0.873125,0.18521 2.54,0.29105 2.592917,0.15875 3.122083,0.29104 3.624792,0.9525 0.555629,0.71437 0.740829,1.79916 0.740829,4.04812 0,2.80458 -0.34395,4.18042 -1.137704,4.78896 -0.47625,0.37042 -1.455209,0.47625 -3.81,0.47625 -2.460625,0 -3.413125,-0.21167 -3.96875,-0.9525 -0.555625,-0.68792 -0.714375,-1.64042 -0.714375,-3.86292 v -0.71437 z"
         id="path3759" />
      <path
         style="fill:#ffffff;stroke-width:0.26458332"
         inkscape:connector-curvature="0"
         class="st22"
         d="m 108.60747,155.00703 c -0.15875,3.14854 -0.92604,3.91583 -3.91583,3.91583 -1.61396,0 -2.38125,-0.29104 -2.91042,-1.05833 -0.55562,-0.84667 -0.71437,-1.98437 -0.71437,-4.89479 0,-3.06917 0.15875,-4.18042 0.76729,-5.02708 0.55562,-0.7673 1.24354,-1.00542 3.06916,-1.00542 1.905,0 2.56646,0.23812 3.06917,1.08479 0.50271,0.84667 0.68792,2.11667 0.68792,4.70958 0,0.1323 0,0.66146 0,1.16417 h -5.47688 c 0,1.16417 0.0529,1.53458 0.26459,1.85208 0.21166,0.34396 0.66145,0.47625 1.42875,0.47625 1.34937,0 1.5875,-0.1852 1.66687,-1.21708 z m -2.06375,-3.46604 c 0,-0.89958 -0.0265,-1.11125 -0.15875,-1.37583 -0.18521,-0.39688 -0.60854,-0.58209 -1.45521,-0.58209 -1.40229,0 -1.74625,0.37042 -1.77271,1.95792 z"
         id="path3761" />
      <path
         style="fill:#ffffff;stroke-width:0.26458332"
         inkscape:connector-curvature="0"
         class="st22"
         d="m 111.41205,147.25474 v 1.71979 h 0.10584 c 0.39687,-1.45521 0.97896,-2.01083 2.14312,-2.01083 1.69334,0 2.24896,1.16416 2.24896,4.57729 v 0.76729 h -1.98437 c 0,-1.69333 -0.23813,-2.14312 -1.11125,-2.14312 -0.47625,0 -0.87313,0.29104 -1.05834,0.8202 -0.21166,0.55563 -0.26458,1.19063 -0.26458,2.93688 v 4.70958 h -2.09021 v -11.40354 h 2.01083 z"
         id="path3763" />
      <path
         style="fill:#ffffff;stroke-width:0.26458332"
         inkscape:connector-curvature="0"
         class="st22"
         d="m 118.31768,147.25474 1.74625,8.09625 1.71979,-8.09625 h 2.38125 l -2.75167,11.40354 h -2.69875 l -2.75166,-11.40354 z"
         id="path3765" />
      <path
         style="fill:#ffffff;stroke-width:0.26458332"
         inkscape:connector-curvature="0"
         class="st22"
         d="m 126.57268,142.57161 v 3.20146 h -2.09021 v -3.20146 z m 0,4.68313 v 11.40354 h -2.09021 v -11.40354 z"
         id="path3767" />
      <path
         style="fill:#ffffff;stroke-width:0.26458332"
         inkscape:connector-curvature="0"
         class="st22"
         d="m 135.01289,154.08099 c -0.0265,1.905 -0.15875,2.72521 -0.52917,3.46604 -0.52917,1.11125 -1.21708,1.40229 -3.41312,1.40229 -1.7198,0 -2.43417,-0.23812 -2.9898,-1.05833 -0.55562,-0.76729 -0.71437,-2.01083 -0.71437,-5.00063 0,-2.75166 0.15875,-3.94229 0.66146,-4.7625 0.52916,-0.89958 1.27,-1.16416 3.14854,-1.16416 1.85208,0 2.67229,0.29104 3.20146,1.19062 0.44979,0.71438 0.60854,1.61396 0.635,3.75709 h -2.11667 c -0.0794,-1.29646 -0.47625,-1.74625 -1.71979,-1.74625 -1.45521,0 -1.71979,0.44979 -1.71979,2.83104 0,1.48166 0.10583,2.06375 0.50271,2.38125 0.23812,0.21166 0.68791,0.34396 1.24354,0.34396 1.21708,0 1.5875,-0.34396 1.66687,-1.64042 z"
         id="path3769" />
      <path
         style="fill:#ffffff;stroke-width:0.26458332"
         inkscape:connector-curvature="0"
         class="st22"
         d="m 137.87039,142.57161 v 3.20146 h -2.09021 v -3.20146 z m 0,4.68313 v 11.40354 h -2.09021 v -11.40354 z"
         id="path3771" />
      <path
         style="fill:#ffffff;stroke-width:0.26458332"
         inkscape:connector-curvature="0"
         class="st22"
         d="m 145.8608,147.99557 c 0.55563,0.84667 0.71438,1.87854 0.71438,4.73604 0,3.12209 -0.13229,4.18042 -0.66146,5.05355 -0.52917,0.89958 -1.24354,1.1377 -3.30729,1.1377 -2.09021,0 -2.80458,-0.23812 -3.33375,-1.1377 -0.52917,-0.87313 -0.66146,-1.93146 -0.66146,-5.23875 0,-2.6723 0.15875,-3.75709 0.71438,-4.5773 0.52916,-0.76729 1.34937,-1.03187 3.25437,-1.03187 1.95792,0.0265 2.77813,0.29104 3.28083,1.05833 z m -5.10645,5.05354 c 0,1.50813 0.10583,2.01084 0.47625,2.32834 0.26458,0.23812 0.74083,0.37041 1.40229,0.37041 1.5875,0 1.85208,-0.39687 1.85208,-2.83104 0,-1.53458 -0.10583,-2.09021 -0.50271,-2.40771 -0.26458,-0.21166 -0.76729,-0.34395 -1.34937,-0.34395 -1.5875,0 -1.87854,0.44979 -1.87854,2.88395 z"
         id="path3773" />
      <path
         style="fill:#ffffff;stroke-width:0.26458332"
         inkscape:connector-curvature="0"
         class="st22"
         d="m 149.32685,155.00703 c 0.0264,0.97896 0.44979,1.27 1.74625,1.27 1.34937,0 1.74624,-0.23812 1.74624,-1.05833 0,-0.44979 -0.1852,-0.76729 -0.47625,-0.84667 -0.29104,-0.0529 -0.79374,-0.0794 -2.85749,-0.0794 -1.5875,-0.0529 -2.24896,-1.05834 -2.24896,-3.4925 0,-1.74625 0.3175,-2.83105 0.97896,-3.33375 0.44979,-0.37042 1.42875,-0.52917 2.91041,-0.52917 1.905,0 2.59292,0.23812 3.06917,1.05833 0.29104,0.47625 0.39687,1.08479 0.44979,2.46063 h -2.11667 c -0.0529,-0.37042 -0.0794,-0.42334 -0.13229,-0.52917 -0.18521,-0.23812 -0.60854,-0.34396 -1.32291,-0.34396 -1.32292,0 -1.7198,0.21167 -1.7198,0.9525 0,0.44979 0.15875,0.68792 0.50271,0.74084 0.34396,0.0529 0.71438,0.0794 2.8575,0.10583 1.61396,0.0265 2.24896,0.97896 2.24896,3.54542 0,3.25437 -0.76729,3.9952 -3.99521,3.9952 -2.03729,0 -2.72521,-0.23812 -3.22791,-1.19062 -0.34396,-0.635 -0.47625,-1.42875 -0.50271,-2.75167 h 2.09021 z"
         id="path3775" />
      <path
         style="fill:#ffffff;stroke-width:0.26458332"
         inkscape:connector-curvature="0"
         class="st22"
         d="m 166.36601,158.65828 h -1.98437 v -1.48167 h -0.10584 c -0.39687,1.37584 -0.9525,1.77271 -2.46062,1.77271 -1.50813,0 -2.24896,-0.3175 -2.72521,-1.21708 -0.44979,-0.87313 -0.60854,-2.01083 -0.60854,-4.86833 0,-2.88396 0.21166,-4.2598 0.82021,-5.05355 0.5027,-0.66145 1.08479,-0.87312 2.54,-0.87312 1.4552,0 1.95791,0.39687 2.35479,1.82562 h 0.0794 v -6.19125 h 2.09021 z m -5.79437,-5.84729 c 0,2.51354 0.23812,2.88396 1.79916,2.88396 0.76729,0 1.34938,-0.18521 1.56104,-0.52917 0.23813,-0.3175 0.3175,-0.92604 0.3175,-2.24896 0,-2.35479 -0.26458,-2.80458 -1.7727,-2.80458 -1.61396,0.0265 -1.905,0.42333 -1.905,2.69875 z"
         id="path3777" />
      <path
         style="fill:#ffffff;stroke-width:0.26458332"
         inkscape:connector-curvature="0"
         class="st22"
         d="m 174.67393,155.00703 c -0.15875,3.14854 -0.92604,3.91583 -3.91584,3.91583 -1.61395,0 -2.38125,-0.29104 -2.91041,-1.05833 -0.55563,-0.84667 -0.71438,-1.98437 -0.71438,-4.89479 0,-3.06917 0.15875,-4.18042 0.76729,-5.02708 0.55563,-0.7673 1.24355,-1.00542 3.06917,-1.00542 1.905,0 2.56646,0.23812 3.06917,1.08479 0.50271,0.84667 0.68791,2.11667 0.68791,4.70958 0,0.1323 0,0.66146 0,1.16417 h -5.47687 c 0,1.16417 0.0529,1.53458 0.26458,1.85208 0.21167,0.34396 0.66146,0.47625 1.42875,0.47625 1.34938,0 1.5875,-0.1852 1.66688,-1.21708 z m -2.03729,-3.46604 c 0,-0.89958 -0.0265,-1.11125 -0.15875,-1.37583 -0.18521,-0.39688 -0.60855,-0.58209 -1.45521,-0.58209 -1.40229,0 -1.74625,0.37042 -1.77271,1.95792 z"
         id="path3779" />
      <path
         style="fill:#ffffff;stroke-width:0.26458332"
         inkscape:connector-curvature="0"
         class="st22"
         d="m 186.89768,142.57161 v 3.78355 h -5.92667 v 3.0427 h 5.63563 v 3.67771 h -5.63563 v 5.55625 h -2.40771 v -16.06021 z"
         id="path3781" />
      <path
         style="fill:#ffffff;stroke-width:0.26458332"
         inkscape:connector-curvature="0"
         class="st22"
         d="m 189.43768,142.57161 v 16.06021 h -2.09021 v -16.06021 z"
         id="path3783" />
      <path
         style="fill:#ffffff;stroke-width:0.26458332"
         inkscape:connector-curvature="0"
         class="st22"
         d="m 197.42809,147.99557 c 0.55563,0.84667 0.71438,1.87854 0.71438,4.73604 0,3.12209 -0.13229,4.18042 -0.66146,5.05355 -0.52917,0.89958 -1.24354,1.1377 -3.30729,1.1377 -2.09021,0 -2.80458,-0.23812 -3.33375,-1.1377 -0.52917,-0.87313 -0.66146,-1.93146 -0.66146,-5.23875 0,-2.6723 0.15875,-3.75709 0.71438,-4.5773 0.52916,-0.76729 1.34937,-1.03187 3.25437,-1.03187 1.95792,0.0265 2.77813,0.29104 3.28083,1.05833 z m -5.10645,5.05354 c 0,1.50813 0.10583,2.01084 0.47625,2.32834 0.26458,0.23812 0.74083,0.37041 1.40229,0.37041 1.5875,0 1.85208,-0.39687 1.85208,-2.83104 0,-1.53458 -0.10583,-2.09021 -0.50271,-2.40771 -0.26458,-0.21166 -0.76729,-0.34395 -1.34937,-0.34395 -1.5875,0 -1.87854,0.44979 -1.87854,2.88395 z"
         id="path3785" />
      <path
         style="fill:#ffffff;stroke-width:0.26458332"
         inkscape:connector-curvature="0"
         class="st22"
         d="m 200.92059,147.25474 v 1.71979 h 0.10584 c 0.39687,-1.45521 0.97896,-2.01083 2.14312,-2.01083 1.69334,0 2.24896,1.16416 2.24896,4.57729 v 0.76729 h -1.98437 c 0,-1.69333 -0.23813,-2.14312 -1.11125,-2.14312 -0.47625,0 -0.87313,0.29104 -1.05834,0.8202 -0.21166,0.55563 -0.26458,1.19063 -0.26458,2.93688 v 4.70958 h -2.09021 v -11.40354 h 2.01083 z"
         id="path3787" />
      <path
         style="fill:#ffffff;stroke-width:0.26458332"
         inkscape:connector-curvature="0"
         class="st22"
         d="m 213.46184,155.00703 c -0.15875,3.14854 -0.92604,3.91583 -3.91583,3.91583 -1.61396,0 -2.38125,-0.29104 -2.91042,-1.05833 -0.55562,-0.84667 -0.71437,-1.98437 -0.71437,-4.89479 0,-3.06917 0.15875,-4.18042 0.76729,-5.02708 0.55563,-0.7673 1.24354,-1.00542 3.06917,-1.00542 1.905,0 2.56646,0.23812 3.06916,1.08479 0.50271,0.84667 0.68792,2.11667 0.68792,4.70958 0,0.1323 0,0.66146 0,1.16417 h -5.47687 c 0,1.16417 0.0529,1.53458 0.26458,1.85208 0.21167,0.34396 0.66146,0.47625 1.42875,0.47625 1.34937,0 1.5875,-0.1852 1.66687,-1.21708 z m -2.06375,-3.46604 c 0,-0.89958 -0.0264,-1.11125 -0.15875,-1.37583 -0.1852,-0.39688 -0.60854,-0.58209 -1.4552,-0.58209 -1.4023,0 -1.74625,0.37042 -1.77271,1.95792 z"
         id="path3789" />
      <path
         style="fill:#ffffff;stroke-width:0.26458332"
         inkscape:connector-curvature="0"
         class="st22"
         d="m 216.26643,147.25474 v 1.74625 h 0.10583 c 0.37042,-1.48167 1.00542,-2.01083 2.38125,-2.01083 1.34938,0 2.01083,0.39687 2.51354,1.42875 0.50271,1.08479 0.60854,1.95791 0.60854,5.08 v 5.18583 h -2.0902 v -5.18583 c 0,-1.82563 -0.0265,-2.24896 -0.26459,-2.6723 -0.21166,-0.44979 -0.635,-0.635 -1.40229,-0.635 -0.76729,0 -1.19062,0.21167 -1.42875,0.74084 -0.26458,0.55562 -0.3175,1.08479 -0.3175,3.175 v 4.55083 h -2.09021 v -11.40354 z"
         id="path3791" />
      <path
         style="fill:#ffffff;stroke-width:0.26458332"
         inkscape:connector-curvature="0"
         class="st22"
         d="m 230.28934,154.08099 c -0.0265,1.905 -0.15875,2.72521 -0.52916,3.46604 -0.52917,1.11125 -1.21709,1.40229 -3.41313,1.40229 -1.71979,0 -2.43416,-0.23812 -2.98979,-1.05833 -0.55562,-0.76729 -0.71437,-2.01083 -0.71437,-5.00063 0,-2.75166 0.15875,-3.94229 0.66145,-4.7625 0.52917,-0.89958 1.27,-1.16416 3.14855,-1.16416 1.85208,0 2.67229,0.29104 3.20145,1.19062 0.4498,0.71438 0.60855,1.61396 0.635,3.75709 h -2.11666 c -0.0794,-1.29646 -0.47625,-1.74625 -1.71979,-1.74625 -1.45521,0 -1.7198,0.44979 -1.7198,2.83104 0,1.48166 0.10584,2.06375 0.50271,2.38125 0.23813,0.21166 0.68792,0.34396 1.24354,0.34396 1.21709,0 1.5875,-0.34396 1.66688,-1.64042 z"
         id="path3793" />
      <path
         style="fill:#ffffff;stroke-width:0.26458332"
         inkscape:connector-curvature="0"
         class="st22"
         d="m 233.1733,142.57161 v 3.20146 h -2.09021 v -3.20146 z m 0,4.68313 v 11.40354 h -2.09021 v -11.40354 z"
         id="path3795" />
      <path
         style="fill:#ffffff;stroke-width:0.26458332"
         inkscape:connector-curvature="0"
         class="st22"
         d="m 234.15226,150.82661 c 0.0529,-1.66687 0.34396,-2.56645 0.97896,-3.20145 0.47625,-0.4498 1.45521,-0.66146 3.12208,-0.66146 1.82563,0 2.24896,0.15875 2.72521,1.13771 0.34396,0.76729 0.47625,1.64041 0.47625,3.70416 v 6.87917 h -2.01083 v -1.56104 h -0.0794 c -0.18521,0.74083 -0.39687,1.16416 -0.79375,1.48166 -0.34396,0.29105 -0.87312,0.39688 -2.24896,0.39688 -1.85208,0 -2.43416,-0.84667 -2.43416,-3.54542 0,-2.03729 0.37041,-3.175 1.19062,-3.62479 0.50271,-0.29104 1.05834,-0.37042 2.59292,-0.37042 0.97896,0 1.24354,0.15875 1.5875,0.89959 h 0.10583 v -0.60854 c 0,-1.77271 -0.15875,-2.01084 -1.42875,-2.01084 -1.50812,0 -1.66687,0.10584 -1.71979,1.13771 h -2.06375 z m 1.87854,4.20688 c 0,0.92604 0.3175,1.19062 1.45521,1.19062 1.48167,0 1.905,-0.29104 1.905,-1.29645 0,-0.4498 -0.13229,-0.79375 -0.37042,-0.9525 -0.13229,-0.10584 -0.44979,-0.1323 -1.34937,-0.1323 -1.29646,0 -1.64042,0.26459 -1.64042,1.19063 z"
         id="path3797" />
      <path
         style="fill:#ffffff;stroke-width:0.26458332"
         inkscape:connector-curvature="0"
         class="st22"
         d="m 68.073304,176.25307 c 0,0.97896 0.07938,1.29646 0.449792,1.53459 0.423333,0.29104 0.926042,0.34395 4.153958,0.34395 4.92125,0 4.92125,0 4.92125,-1.4552 0,-0.97896 -0.343958,-1.21709 -1.799166,-1.24355 l -3.624792,-0.15875 -2.434167,-0.13229 -1.217083,-0.0529 c -3.730625,-0.1323 -4.7625,-1.13771 -4.7625,-4.73605 0,-3.09562 0.820208,-4.49791 2.883958,-5.00062 0.873125,-0.18521 2.963334,-0.29104 6.588125,-0.29104 4.392084,0 5.953125,0.21166 7.037917,1.00541 0.899583,0.66146 1.27,1.69334 1.27,3.6248 0,0.10583 0,0.44979 -0.02646,0.76729 h -4.418542 c -0.05292,-0.89959 -0.105833,-1.13771 -0.449792,-1.34938 -0.396875,-0.23812 -0.9525,-0.29104 -4.206875,-0.29104 -3.889375,0 -4.206875,0.10583 -4.206875,1.29646 0,0.60854 0.211667,0.92604 0.687917,1.05833 0.396875,0.13229 1.640417,0.18521 4.841875,0.29104 4.974167,0.15875 5.953125,0.29105 6.905625,0.9525 1.031875,0.74084 1.42875,1.82563 1.42875,4.10105 0,2.83104 -0.635,4.23333 -2.196042,4.86833 -0.899583,0.37041 -2.804583,0.47625 -7.3025,0.47625 -4.683125,0 -6.50875,-0.21167 -7.567083,-0.9525 -1.031875,-0.71438 -1.375833,-1.66688 -1.375833,-3.91583 v -0.79375 h 4.418541 z"
         id="path3801" />
      <path
         style="fill:#ffffff;stroke-width:0.26458332"
         inkscape:connector-curvature="0"
         class="st22"
         d="m 88.710804,177.33786 v 4.33917 h -4.815416 v -4.33917 z"
         id="path3803" />
      <path
         style="fill:#ffffff;stroke-width:0.26458332"
         inkscape:connector-curvature="0"
         class="st22"
         d="m 106.12039,178.89891 h -9.974794 l -1.296459,2.77812 h -5.23875 l 7.963959,-16.32479 h 7.143754 l 7.88458,16.32479 h -5.21229 z m -4.52438,-9.76313 h -0.89958 l -2.910418,6.19125 h 6.746878 z"
         id="path3805" />
      <path
         style="fill:#ffffff;stroke-width:0.26458332"
         inkscape:connector-curvature="0"
         class="st22"
         d="m 118.58226,177.33786 v 4.33917 h -4.81541 v -4.33917 z"
         id="path3807" />
      <path
         style="fill:#ffffff;stroke-width:0.26458332"
         inkscape:connector-curvature="0"
         class="st22"
         d="m 143.24143,165.32578 v 3.86292 h -12.14438 v 2.38125 h 11.53584 v 3.59833 h -11.53584 v 2.59292 h 12.25021 v 3.91583 h -16.77458 v -16.32479 h 16.66875 z"
         id="path3809" />
      <path
         style="fill:#ffffff;stroke-width:0.26458332"
         inkscape:connector-curvature="0"
         class="st22"
         d="m 149.82955,177.33786 v 4.33917 h -4.81541 v -4.33917 z"
         id="path3811" />
      <path
         style="fill:#ffffff;stroke-width:0.26458332"
         inkscape:connector-curvature="0"
         class="st22"
         d="m 156.07372,176.25307 c 0,0.97896 0.0794,1.29646 0.44979,1.53459 0.42333,0.29104 0.92604,0.34395 4.15396,0.34395 4.92125,0 4.92125,0 4.92125,-1.4552 0,-0.97896 -0.34396,-1.21709 -1.79917,-1.24355 l -3.62479,-0.15875 -2.43417,-0.13229 -1.21708,-0.0529 c -3.73062,-0.1323 -4.7625,-1.13771 -4.7625,-4.73605 0,-3.09562 0.82021,-4.49791 2.88396,-5.00062 0.87312,-0.18521 2.96333,-0.29104 6.58812,-0.29104 4.39209,0 5.95313,0.21166 7.03792,1.00541 0.89958,0.66146 1.27,1.69334 1.27,3.6248 0,0.10583 0,0.44979 -0.0265,0.76729 h -4.41854 c -0.0529,-0.89959 -0.10583,-1.13771 -0.44979,-1.34938 -0.39688,-0.23812 -0.9525,-0.29104 -4.20688,-0.29104 -3.88937,0 -4.20687,0.10583 -4.20687,1.29646 0,0.60854 0.21167,0.92604 0.68792,1.05833 0.39687,0.13229 1.64041,0.18521 4.84187,0.29104 4.97417,0.15875 5.95313,0.29105 6.90563,0.9525 1.03187,0.74084 1.42875,1.82563 1.42875,4.10105 0,2.83104 -0.635,4.23333 -2.19605,4.86833 -0.89958,0.37041 -2.80458,0.47625 -7.3025,0.47625 -4.68312,0 -6.50875,-0.21167 -7.56708,-0.9525 -1.03187,-0.71438 -1.37583,-1.66688 -1.37583,-3.91583 v -0.79375 h 4.41854 z"
         id="path3813" />
      <path
         style="fill:#ffffff;stroke-width:0.26458332"
         inkscape:connector-curvature="0"
         class="st22"
         d="m 176.71122,177.33786 v 4.33917 h -4.81542 v -4.33917 z"
         id="path3815" />
      <path
         style="fill:#ffffff;stroke-width:0.26458332"
         inkscape:connector-curvature="0"
         class="st22"
         d="m 179.06601,165.32578 h 10.31875 c 2.8575,0 3.25438,0.0265 4.10104,0.15875 2.8575,0.47625 3.65125,1.79917 3.65125,5.97958 0,3.6248 -0.60854,5.05355 -2.40771,5.74146 -1.00541,0.37042 -2.03729,0.47625 -5.29166,0.47625 h -5.79438 v 3.99521 h -4.57729 z m 10.31875,8.255 c 2.11667,-0.0265 2.2225,-0.0265 2.59292,-0.26458 0.42333,-0.29104 0.55562,-0.74084 0.55562,-1.85209 0,-1.16416 -0.21166,-1.66687 -0.79375,-1.87854 -0.3175,-0.13229 -0.37041,-0.13229 -2.38125,-0.15875 h -5.715 v 4.15396 z"
         id="path3817" />
      <path
         style="fill:#ffffff;stroke-width:0.26458332"
         inkscape:connector-curvature="0"
         class="st22"
         d="m 202.95789,177.33786 v 4.33917 h -4.81542 v -4.33917 z"
         id="path3819" />
    </g>
    <g
       id="g4070"
       transform="matrix(0.62127399,0,0,0.62127399,-7.6865248,45.659822)"
       style="fill:#ffffff">
      <path
         id="path3823"
         d="m -9.3702363,130.42724 -0.7672917,-1.905 c -0.264583,-0.55563 -0.555625,-1.08479 -0.873125,-1.5875 L -25.853778,99.603281 -40.723361,126.93474 c -0.3175,0.50271 -0.608542,1.03187 -0.873125,1.5875 l -0.767292,1.905 c -0.608541,1.74625 -0.926041,3.65125 -0.926041,5.60917 0,9.63083 7.805208,17.40958 17.409583,17.40958 9.604375,0 17.4360413,-7.80521 17.4360413,-17.40958 0,-1.95792 -0.3174999,-3.86292 -0.9260416,-5.60917 z"
         class="st22"
         inkscape:connector-curvature="0"
         style="fill:#ffffff;stroke-width:0.26458332" />
      <path
         id="path3825"
         d="m -3.549403,171.51703 -0.396875,-1.00542 c -0.1322917,-0.29104 -0.2910417,-0.58208 -0.4497917,-0.84666 l -7.9110413,-14.55209 -7.911042,14.55209 c -0.15875,0.26458 -0.3175,0.55562 -0.449791,0.84666 l -0.396875,1.00542 c -0.3175,0.92604 -0.502709,1.93146 -0.502709,2.98979 0,5.10646 4.153958,9.26042 9.260417,9.26042 5.106458,0 9.2604163,-4.15396 9.2604163,-9.26042 -0.026458,-1.05833 -0.1852083,-2.06375 -0.5027083,-2.98979 z"
         class="st22"
         inkscape:connector-curvature="0"
         style="fill:#ffffff;stroke-width:0.26458332" />
      <path
         id="path3827"
         d="m -86.734402,135.05745 c 0.47625,3.06916 3.439583,7.88458 8.440208,13.67896 7.14375,8.28145 17.806458,17.80645 29.950833,26.80229 19.923125,14.73729 39.793333,24.89729 48.49812458,24.89729 0.34395832,0 0.63499999,-0.0265 0.95250002,-0.0529 1.2435416,-1.74625 -0.1322917,-5.52979 -3.730625,-10.55687 0.238125,1.32291 0.052917,2.4077 -0.555625,3.25437 -0.79375,1.08479 -2.1960416,1.5875 -4.1010416,1.5875 -8.202083,0 -25.452916,-9.44562 -40.401874,-20.42583 -10.00125,-7.32896 -18.758959,-15.10771 -24.685625,-21.9075 -4.339167,-4.97417 -9.022292,-11.61521 -6.614583,-14.89604 0.608541,-0.82021 1.5875,-1.32292 2.910416,-1.50813 -3.148541,-1.03187 -5.767916,-1.56104 -7.699375,-1.56104 -1.322916,-0.0265 -2.301875,0.21167 -2.963333,0.68792 z"
         class="st22"
         inkscape:connector-curvature="0"
         style="fill:#ffffff;stroke-width:0.26458332" />
      <path
         id="path3829"
         d="m -93.640027,127.54328 c -2.143125,0 -3.624792,0.50271 -4.392083,1.53458 -0.211667,0.29105 -0.343959,0.60855 -0.449792,0.9525 1.772708,9.41917 21.219583,29.28938 46.540208,47.46625 26.749375,19.23521 49.3183326,29.31584 58.9227075,29.31584 1.7727083,0 3.1220835,-0.34396 3.9687495,-1.05834 -0.555625,-2.61937 -2.4341662,-6.16479 -5.4768745,-10.34521 0.5291667,1.98438 0.3704167,3.54542 -0.47625,4.70959 -0.6879166,0.9525 -1.7991666,1.53458 -3.2808333,1.77271 -0.47625,0.0794 -0.9789583,0.10583 -1.50812496,0.10583 -9.18104154,0 -29.02479124,-10.02771 -49.50354124,-25.18833 -12.250208,-9.04875 -22.992291,-18.65313 -30.241874,-27.04042 -5.291667,-6.11187 -10.980209,-14.23458 -8.122709,-18.17687 0.846667,-1.16417 2.275417,-1.77271 4.312709,-1.85209 -4.206875,-1.45521 -7.725834,-2.19604 -10.292292,-2.19604 z"
         class="st22"
         inkscape:connector-curvature="0"
         style="fill:#ffffff;stroke-width:0.26458332" />
      <path
         id="path3831"
         d="m 12.934138,199.95974 c 0.926042,2.69875 0.846667,4.81541 -0.264583,6.29708 -3.4131249,4.55083 -14.7108331,0.97896 -23.600833,-2.80458 -12.22375,-5.23875 -27.119791,-13.99646 -41.962916,-24.63271 -26.273125,-18.91771 -45.72,-38.97312 -47.228126,-48.84208 -0.26458,-1.71979 0,-3.12209 0.82021,-4.18042 1.11125,-1.45521 3.095625,-2.16958 5.926666,-2.14312 -5.503333,-1.905 -10.027706,-2.88396 -13.334996,-2.88396 -2.64584,0 -4.52438,0.635 -5.47688,1.905 -0.68792,0.89958 -0.89958,2.16958 -0.66146,3.75708 1.71979,11.29771 25.29417,35.50708 56.038753,57.57333 17.727083,12.72646 35.533541,23.1775 50.1385407,29.42167 14.0758331,6.00604 23.6537493,7.43479 26.3260413,3.88937 2.143125,-2.8575 -0.291042,-9.04875 -6.720417,-17.35666 z"
         class="st22"
         inkscape:connector-curvature="0"
         style="fill:#ffffff;stroke-width:0.26458332" />
    </g>
  </g>
  <style
     id="style3713"
     type="text/css">
	.st0{fill:#010202;}
	.st1{fill:#FEFEFD;}
	.st2{fill:#494849;}
	.st3{fill:#DDE1E5;}
	.st4{fill:#F6F8F0;}
	.st5{fill:#65C2CD;}
	.st6{fill:#C2C1C1;}
	.st7{fill:#ECF1CB;}
	.st8{fill:#7F7D7E;}
	.st9{fill:#676566;}
	.st10{fill:#F3F6E0;}
	.st11{fill:#9D9C9D;}
	.st12{fill:#DBE6AF;}
	.st13{fill:#4AAE4B;}
	.st14{fill:#B1CE73;}
	.st15{fill:#CDDF99;}
	.st16{fill:#9AC33C;}
	.st17{fill:#97C22C;}
	.st18{fill:#21B6C3;}
	.st19{fill:#48AD38;}
	.st20{fill:#92C02A;}
	.st21{fill:#C5D31E;}
	.st22{fill:#FFFFFF;}
	.st23{fill:#CDCCCC;}
	.st24{fill:#999999;}
</style>
</svg>
